%TF.GenerationSoftware,KiCad,Pcbnew,9.0.3*%
%TF.CreationDate,2026-03-08T23:38:52+02:00*%
%TF.ProjectId,CanSnif,43616e53-6e69-4662-9e6b-696361645f70,rev?*%
%TF.SameCoordinates,Original*%
%TF.FileFunction,Paste,Top*%
%TF.FilePolarity,Positive*%
%FSLAX46Y46*%
G04 Gerber Fmt 4.6, Leading zero omitted, Abs format (unit mm)*
G04 Created by KiCad (PCBNEW 9.0.3) date 2026-03-08 23:38:52*
%MOMM*%
%LPD*%
G01*
G04 APERTURE LIST*
G04 Aperture macros list*
%AMRoundRect*
0 Rectangle with rounded corners*
0 $1 Rounding radius*
0 $2 $3 $4 $5 $6 $7 $8 $9 X,Y pos of 4 corners*
0 Add a 4 corners polygon primitive as box body*
4,1,4,$2,$3,$4,$5,$6,$7,$8,$9,$2,$3,0*
0 Add four circle primitives for the rounded corners*
1,1,$1+$1,$2,$3*
1,1,$1+$1,$4,$5*
1,1,$1+$1,$6,$7*
1,1,$1+$1,$8,$9*
0 Add four rect primitives between the rounded corners*
20,1,$1+$1,$2,$3,$4,$5,0*
20,1,$1+$1,$4,$5,$6,$7,0*
20,1,$1+$1,$6,$7,$8,$9,0*
20,1,$1+$1,$8,$9,$2,$3,0*%
G04 Aperture macros list end*
%ADD10RoundRect,0.050000X-0.050000X0.325000X-0.050000X-0.325000X0.050000X-0.325000X0.050000X0.325000X0*%
%ADD11RoundRect,0.135000X0.185000X-0.135000X0.185000X0.135000X-0.185000X0.135000X-0.185000X-0.135000X0*%
%ADD12R,0.300000X0.650000*%
%ADD13R,1.550000X1.020000*%
%ADD14RoundRect,0.135000X-0.185000X0.135000X-0.185000X-0.135000X0.185000X-0.135000X0.185000X0.135000X0*%
%ADD15RoundRect,0.225000X-0.250000X0.225000X-0.250000X-0.225000X0.250000X-0.225000X0.250000X0.225000X0*%
%ADD16RoundRect,0.243750X-0.243750X-0.456250X0.243750X-0.456250X0.243750X0.456250X-0.243750X0.456250X0*%
%ADD17RoundRect,0.200000X-0.275000X0.200000X-0.275000X-0.200000X0.275000X-0.200000X0.275000X0.200000X0*%
%ADD18RoundRect,0.200000X0.275000X-0.200000X0.275000X0.200000X-0.275000X0.200000X-0.275000X-0.200000X0*%
%ADD19RoundRect,0.075000X-0.700000X-0.075000X0.700000X-0.075000X0.700000X0.075000X-0.700000X0.075000X0*%
%ADD20RoundRect,0.075000X-0.075000X-0.700000X0.075000X-0.700000X0.075000X0.700000X-0.075000X0.700000X0*%
%ADD21RoundRect,0.140000X-0.140000X-0.170000X0.140000X-0.170000X0.140000X0.170000X-0.140000X0.170000X0*%
%ADD22RoundRect,0.250000X-1.500000X0.250000X-1.500000X-0.250000X1.500000X-0.250000X1.500000X0.250000X0*%
%ADD23RoundRect,0.250000X-1.450000X0.500000X-1.450000X-0.500000X1.450000X-0.500000X1.450000X0.500000X0*%
%ADD24RoundRect,0.200000X-0.200000X-0.275000X0.200000X-0.275000X0.200000X0.275000X-0.200000X0.275000X0*%
%ADD25RoundRect,0.237500X0.250000X0.237500X-0.250000X0.237500X-0.250000X-0.237500X0.250000X-0.237500X0*%
%ADD26RoundRect,0.225000X-0.225000X-0.250000X0.225000X-0.250000X0.225000X0.250000X-0.225000X0.250000X0*%
%ADD27RoundRect,0.150000X0.512500X0.150000X-0.512500X0.150000X-0.512500X-0.150000X0.512500X-0.150000X0*%
%ADD28RoundRect,0.218750X0.218750X0.256250X-0.218750X0.256250X-0.218750X-0.256250X0.218750X-0.256250X0*%
%ADD29RoundRect,0.225000X0.250000X-0.225000X0.250000X0.225000X-0.250000X0.225000X-0.250000X-0.225000X0*%
%ADD30RoundRect,0.225000X0.225000X0.250000X-0.225000X0.250000X-0.225000X-0.250000X0.225000X-0.250000X0*%
%ADD31RoundRect,0.250000X0.650000X-0.800000X0.650000X0.800000X-0.650000X0.800000X-0.650000X-0.800000X0*%
%ADD32RoundRect,0.140000X0.170000X-0.140000X0.170000X0.140000X-0.170000X0.140000X-0.170000X-0.140000X0*%
%ADD33R,1.800000X1.000000*%
%ADD34RoundRect,0.250000X0.650000X-1.000000X0.650000X1.000000X-0.650000X1.000000X-0.650000X-1.000000X0*%
%ADD35RoundRect,0.150000X0.425000X-0.150000X0.425000X0.150000X-0.425000X0.150000X-0.425000X-0.150000X0*%
%ADD36RoundRect,0.075000X0.500000X-0.075000X0.500000X0.075000X-0.500000X0.075000X-0.500000X-0.075000X0*%
%ADD37O,2.100000X1.000000*%
%ADD38O,1.800000X1.000000*%
%ADD39RoundRect,0.250000X0.250000X0.250000X-0.250000X0.250000X-0.250000X-0.250000X0.250000X-0.250000X0*%
%ADD40RoundRect,0.150000X0.825000X0.150000X-0.825000X0.150000X-0.825000X-0.150000X0.825000X-0.150000X0*%
%ADD41R,0.850000X1.100000*%
%ADD42R,0.750000X1.100000*%
%ADD43R,1.200000X1.000000*%
%ADD44R,1.550000X1.350000*%
%ADD45R,1.170000X1.800000*%
%ADD46R,1.900000X1.350000*%
%ADD47RoundRect,0.200000X0.200000X0.275000X-0.200000X0.275000X-0.200000X-0.275000X0.200000X-0.275000X0*%
%ADD48RoundRect,0.250000X1.500000X-0.250000X1.500000X0.250000X-1.500000X0.250000X-1.500000X-0.250000X0*%
%ADD49RoundRect,0.250000X1.450000X-0.500000X1.450000X0.500000X-1.450000X0.500000X-1.450000X-0.500000X0*%
%ADD50RoundRect,0.140000X-0.170000X0.140000X-0.170000X-0.140000X0.170000X-0.140000X0.170000X0.140000X0*%
G04 APERTURE END LIST*
D10*
%TO.C,U4*%
X57000000Y-128625000D03*
X56499999Y-128625003D03*
X56000000Y-128625001D03*
X55500000Y-128625001D03*
X54999997Y-128624999D03*
X54499999Y-128625001D03*
X54000000Y-128625001D03*
X54000000Y-127275002D03*
X54500001Y-127274999D03*
X55000000Y-127275001D03*
X55500000Y-127275001D03*
X56000003Y-127275003D03*
X56500001Y-127275001D03*
X57000000Y-127275001D03*
%TD*%
D11*
%TO.C,R7*%
X55500003Y-130780000D03*
X55500001Y-131800000D03*
%TD*%
D12*
%TO.C,U3*%
X74925000Y-146750000D03*
X74425000Y-146750000D03*
X73925000Y-146750000D03*
X73925000Y-148850000D03*
X74425000Y-148850000D03*
X74925000Y-148850000D03*
D13*
X74425000Y-147800000D03*
%TD*%
D14*
%TO.C,R18*%
X40900000Y-129790000D03*
X40900000Y-130810000D03*
%TD*%
D15*
%TO.C,C12*%
X52225000Y-147450000D03*
X52225000Y-149000000D03*
%TD*%
D16*
%TO.C,D3*%
X32340000Y-147915000D03*
X34215000Y-147915000D03*
%TD*%
D17*
%TO.C,R12*%
X56000000Y-124025000D03*
X56000000Y-125675000D03*
%TD*%
D18*
%TO.C,R10*%
X60150000Y-125900000D03*
X60150000Y-124250000D03*
%TD*%
D19*
%TO.C,U1*%
X49350000Y-136200000D03*
X49350000Y-136700000D03*
X49350000Y-137200000D03*
X49350000Y-137700000D03*
X49350000Y-138200000D03*
X49350000Y-138700000D03*
X49350000Y-139200000D03*
X49350000Y-139700000D03*
X49350000Y-140200000D03*
X49350000Y-140700000D03*
X49350000Y-141200000D03*
X49350000Y-141700000D03*
X49350000Y-142200000D03*
X49350000Y-142700000D03*
X49350000Y-143200000D03*
X49350000Y-143700000D03*
D20*
X51275000Y-145625000D03*
X51775000Y-145625000D03*
X52275000Y-145625000D03*
X52775000Y-145625000D03*
X53275000Y-145625000D03*
X53775000Y-145625000D03*
X54275000Y-145625000D03*
X54775000Y-145625000D03*
X55275000Y-145625000D03*
X55775000Y-145625000D03*
X56275000Y-145625000D03*
X56775000Y-145625000D03*
X57275000Y-145625000D03*
X57775000Y-145625000D03*
X58275000Y-145625000D03*
X58775000Y-145625000D03*
D19*
X60700000Y-143700000D03*
X60700000Y-143200000D03*
X60700000Y-142700000D03*
X60700000Y-142200000D03*
X60700000Y-141700000D03*
X60700000Y-141200000D03*
X60700000Y-140700000D03*
X60700000Y-140200000D03*
X60700000Y-139700000D03*
X60700000Y-139200000D03*
X60700000Y-138700000D03*
X60700000Y-138200000D03*
X60700000Y-137700000D03*
X60700000Y-137200000D03*
X60700000Y-136700000D03*
X60700000Y-136200000D03*
D20*
X58775000Y-134275000D03*
X58275000Y-134275000D03*
X57775000Y-134275000D03*
X57275000Y-134275000D03*
X56775000Y-134275000D03*
X56275000Y-134275000D03*
X55775000Y-134275000D03*
X55275000Y-134275000D03*
X54775000Y-134275000D03*
X54275000Y-134275000D03*
X53775000Y-134275000D03*
X53275000Y-134275000D03*
X52775000Y-134275000D03*
X52275000Y-134275000D03*
X51775000Y-134275000D03*
X51275000Y-134275000D03*
%TD*%
D21*
%TO.C,C9*%
X40840000Y-128900000D03*
X41800000Y-128900000D03*
%TD*%
D22*
%TO.C,J1*%
X38000000Y-127200000D03*
X38000000Y-129200000D03*
X38000000Y-131200000D03*
D23*
X32250000Y-124850000D03*
X32250000Y-133550000D03*
%TD*%
D24*
%TO.C,R17*%
X36127500Y-147890000D03*
X37777500Y-147890000D03*
%TD*%
D25*
%TO.C,R13*%
X70237500Y-129025000D03*
X68412500Y-129025000D03*
%TD*%
D26*
%TO.C,C18*%
X61150000Y-134950000D03*
X62700000Y-134950000D03*
%TD*%
D27*
%TO.C,U5*%
X68937500Y-135850000D03*
X68937500Y-134900000D03*
X68937500Y-133950000D03*
X66662500Y-133950000D03*
X66662500Y-134900000D03*
X66662500Y-135850000D03*
%TD*%
D28*
%TO.C,D5*%
X75587500Y-142125000D03*
X74012500Y-142125000D03*
%TD*%
D29*
%TO.C,C21*%
X71875000Y-148725000D03*
X71875000Y-147175000D03*
%TD*%
%TO.C,C17*%
X47425000Y-143525000D03*
X47425000Y-141975000D03*
%TD*%
D14*
%TO.C,R5*%
X57500002Y-130770000D03*
X57500000Y-131790000D03*
%TD*%
%TO.C,R4*%
X58500002Y-130780000D03*
X58500000Y-131800000D03*
%TD*%
D30*
%TO.C,C7*%
X48500000Y-123900000D03*
X46950000Y-123900000D03*
%TD*%
D31*
%TO.C,Y3*%
X39575000Y-140250000D03*
X39575000Y-137350000D03*
X37275000Y-137350000D03*
X37275000Y-140250000D03*
%TD*%
D29*
%TO.C,C20*%
X54750000Y-112500001D03*
X54750000Y-110949999D03*
%TD*%
D24*
%TO.C,R16*%
X36152500Y-144490000D03*
X37802500Y-144490000D03*
%TD*%
D29*
%TO.C,C19*%
X56250000Y-112500001D03*
X56250000Y-110949999D03*
%TD*%
D26*
%TO.C,C16*%
X58250000Y-147650000D03*
X59800000Y-147650000D03*
%TD*%
D24*
%TO.C,R1*%
X43800000Y-141450000D03*
X45450000Y-141450000D03*
%TD*%
D32*
%TO.C,C2*%
X41325000Y-138550000D03*
X41325000Y-137590000D03*
%TD*%
D16*
%TO.C,D2*%
X32350000Y-144475000D03*
X34225000Y-144475000D03*
%TD*%
D26*
%TO.C,C15*%
X61175000Y-133450000D03*
X62725000Y-133450000D03*
%TD*%
D14*
%TO.C,R19*%
X40900000Y-126980000D03*
X40900000Y-128000000D03*
%TD*%
D33*
%TO.C,Y1*%
X45625000Y-138788500D03*
X45625000Y-136288500D03*
%TD*%
D30*
%TO.C,C6*%
X48500000Y-125400000D03*
X46950000Y-125400000D03*
%TD*%
D18*
%TO.C,R9*%
X54450000Y-125775000D03*
X54450000Y-124125000D03*
%TD*%
D29*
%TO.C,C14*%
X50025000Y-133850000D03*
X50025000Y-132300000D03*
%TD*%
D11*
%TO.C,R6*%
X56500000Y-131800000D03*
X56500002Y-130780000D03*
%TD*%
D32*
%TO.C,C4*%
X43925000Y-137118500D03*
X43925000Y-136158500D03*
%TD*%
D26*
%TO.C,C5*%
X46825000Y-114675000D03*
X48375000Y-114675000D03*
%TD*%
D18*
%TO.C,R11*%
X58650000Y-125900000D03*
X58650000Y-124250000D03*
%TD*%
D34*
%TO.C,D1*%
X69400000Y-147300000D03*
X69400000Y-143300000D03*
%TD*%
D35*
%TO.C,J4*%
X72600000Y-138250000D03*
X72600000Y-137450000D03*
D36*
X72600000Y-136300000D03*
X72600000Y-135300000D03*
X72600000Y-134800000D03*
X72600000Y-133800000D03*
D35*
X72600000Y-132650000D03*
X72600000Y-131850000D03*
X72600000Y-131850000D03*
X72600000Y-132650000D03*
D36*
X72600000Y-133300000D03*
X72600000Y-134300000D03*
X72600000Y-135800000D03*
X72600000Y-136800000D03*
D35*
X72600000Y-137450000D03*
X72600000Y-138250000D03*
D37*
X73175000Y-139370000D03*
D38*
X77355000Y-139370000D03*
D37*
X73175000Y-130730000D03*
D38*
X77355000Y-130730000D03*
%TD*%
D39*
%TO.C,D4*%
X45525000Y-132950000D03*
X43025000Y-132950000D03*
%TD*%
D26*
%TO.C,C22*%
X73875000Y-145400000D03*
X75425000Y-145400000D03*
%TD*%
D14*
%TO.C,R3*%
X54500002Y-130780000D03*
X54500000Y-131800000D03*
%TD*%
D40*
%TO.C,U2*%
X48700000Y-130755000D03*
X48700000Y-129485000D03*
X48700000Y-128215000D03*
X48700000Y-126945000D03*
X43750000Y-126945000D03*
X43750000Y-128215000D03*
X43750000Y-129485000D03*
X43750000Y-130755000D03*
%TD*%
D41*
%TO.C,J5*%
X67195000Y-111750000D03*
X61695001Y-111750001D03*
X60595003Y-111749999D03*
X62795003Y-111749997D03*
X63895000Y-111750001D03*
X64995000Y-111750000D03*
X66094998Y-111750002D03*
D42*
X68245001Y-111749999D03*
D43*
X57960001Y-117899999D03*
X57959999Y-121600000D03*
D44*
X58135000Y-111875000D03*
D45*
X69455000Y-112100000D03*
D46*
X67430000Y-122575000D03*
X61460001Y-122574999D03*
%TD*%
D18*
%TO.C,R8*%
X52925000Y-125775000D03*
X52925000Y-124125000D03*
%TD*%
D47*
%TO.C,R14*%
X69450000Y-137950000D03*
X67800000Y-137950000D03*
%TD*%
D26*
%TO.C,C13*%
X59975000Y-146050000D03*
X61525000Y-146050000D03*
%TD*%
%TO.C,C10*%
X73875000Y-143900000D03*
X75425000Y-143900000D03*
%TD*%
D47*
%TO.C,R15*%
X69525000Y-132250000D03*
X67875000Y-132250000D03*
%TD*%
D15*
%TO.C,C11*%
X48450000Y-132475000D03*
X48450000Y-134025000D03*
%TD*%
D48*
%TO.C,J2*%
X72064065Y-126121526D03*
X72064065Y-124121526D03*
D49*
X77814065Y-128471526D03*
X77814065Y-121771526D03*
%TD*%
D50*
%TO.C,C3*%
X43925000Y-138038500D03*
X43925000Y-138998500D03*
%TD*%
D30*
%TO.C,C8*%
X44300000Y-125350000D03*
X42750000Y-125350000D03*
%TD*%
D14*
%TO.C,R2*%
X53500001Y-130780000D03*
X53500001Y-131800000D03*
%TD*%
D32*
%TO.C,C1*%
X41325000Y-140810000D03*
X41325000Y-139850000D03*
%TD*%
M02*
