M48
; DRILL file {KiCad 9.0.3} date 2026-03-08T23:38:56+0200
; FORMAT={-:-/ absolute / metric / decimal}
; #@! TF.CreationDate,2026-03-08T23:38:56+02:00
; #@! TF.GenerationSoftware,Kicad,Pcbnew,9.0.3
; #@! TF.FileFunction,Plated,1,4,PTH
FMAT,2
METRIC
; #@! TA.AperFunction,Plated,PTH,ViaDrill
T1C0.300
; #@! TA.AperFunction,Plated,PTH,ComponentDrill
T2C0.600
; #@! TA.AperFunction,Plated,PTH,ComponentDrill
T3C1.000
; #@! TA.AperFunction,Plated,PTH,ComponentDrill
T4C1.850
%
G90
G05
T1
X30.5Y-129.9
X30.5Y-130.875
X30.5Y-131.8
X30.5Y-132.7
X30.5Y-133.625
X30.5Y-134.5
X30.5Y-135.4
X30.5Y-136.325
X30.5Y-137.275
X30.5Y-138.175
X30.5Y-139.1
X30.5Y-139.975
X30.5Y-140.875
X30.5Y-141.8
X30.5Y-142.775
X30.5Y-143.75
X30.5Y-144.675
X30.5Y-145.575
X30.5Y-146.5
X30.5Y-147.375
X30.5Y-148.275
X30.5Y-149.2
X30.525Y-117.15
X30.525Y-118.125
X30.525Y-119.05
X30.525Y-119.95
X30.525Y-120.875
X30.525Y-121.75
X30.525Y-122.65
X30.525Y-123.575
X30.525Y-124.525
X30.525Y-125.425
X30.525Y-126.35
X30.525Y-127.225
X30.525Y-128.125
X30.525Y-129.05
X30.525Y-152.95
X30.55Y-115.375
X30.55Y-116.325
X30.55Y-150.1
X30.55Y-151.0
X30.55Y-151.925
X30.55Y-154.1
X30.55Y-155.0
X30.585Y-114.414
X30.675Y-156.025
X30.904Y-113.227
X31.025Y-157.0
X31.425Y-112.325
X31.55Y-157.775
X32.125Y-149.975
X32.125Y-151.45
X32.225Y-111.525
X32.35Y-158.575
X32.525Y-124.55
X32.525Y-126.95
X32.675Y-117.825
X32.675Y-120.05
X32.675Y-122.45
X33.0Y-111.0
X33.252Y-159.096
X33.6Y-149.975
X33.625Y-151.475
X33.975Y-110.65
X34.439Y-159.415
X34.7Y-117.35
X35.0Y-110.525
X35.4Y-159.45
X35.725Y-135.75
X35.725Y-137.25
X35.725Y-138.95
X35.725Y-140.35
X35.725Y-141.85
X35.9Y-110.525
X36.575Y-117.35
X36.85Y-110.525
X36.925Y-159.475
X37.275Y-140.25
X37.675Y-110.55
X37.7Y-114.375
X37.775Y-115.9
X37.9Y-159.475
X38.1Y-152.525
X38.1Y-154.75
X38.1Y-157.15
X38.412Y-135.75
X38.425Y-141.85
X38.45Y-117.35
X38.65Y-110.55
X38.825Y-159.475
X38.938Y-144.45
X38.953Y-147.89
X39.575Y-137.35
X39.6Y-110.55
X39.725Y-159.475
X39.75Y-114.325
X39.825Y-115.85
X39.9Y-117.35
X40.15Y-152.475
X40.15Y-154.7
X40.15Y-157.1
X40.425Y-110.575
X40.575Y-159.475
X40.989Y-141.85
X41.025Y-135.75
X41.325Y-136.65
X41.325Y-139.85
X41.4Y-110.575
X41.475Y-132.95
X41.5Y-159.475
X41.625Y-114.325
X41.7Y-115.85
X41.95Y-117.3
X42.025Y-152.475
X42.025Y-154.7
X42.025Y-157.1
X42.125Y-141.85
X42.225Y-135.75
X42.225Y-137.15
X42.225Y-138.55
X42.325Y-110.575
X42.45Y-159.475
X43.15Y-110.6
X43.225Y-135.338
X43.225Y-136.638
X43.225Y-138.538
X43.225Y-139.738
X43.25Y-142.825
X43.375Y-159.475
X43.8Y-130.8
X43.85Y-117.725
X43.85Y-119.95
X43.85Y-122.35
X43.9Y-152.475
X43.9Y-154.7
X43.9Y-157.1
X43.925Y-137.118
X43.925Y-138.038
X44.075Y-132.85
X44.125Y-110.6
X44.275Y-159.475
X44.3Y-123.95
X44.425Y-139.738
X44.525Y-135.338
X44.6Y-142.85
X45.1Y-110.6
X45.2Y-159.475
X45.275Y-128.9
X45.3Y-129.975
X45.325Y-127.65
X45.35Y-126.675
X45.55Y-142.85
X45.55Y-152.475
X45.55Y-154.7
X45.55Y-157.1
X45.625Y-135.338
X45.625Y-139.738
X45.725Y-117.725
X45.725Y-119.95
X45.725Y-122.35
X45.925Y-110.625
X46.125Y-159.475
X46.4Y-141.825
X46.825Y-118.225
X46.875Y-129.95
X46.9Y-110.625
X46.95Y-122.3
X46.95Y-123.0
X46.975Y-128.825
X47.0Y-159.475
X47.025Y-135.338
X47.025Y-136.561
X47.025Y-138.338
X47.025Y-139.738
X47.425Y-141.95
X47.425Y-152.475
X47.425Y-154.7
X47.425Y-157.1
X47.9Y-159.475
X47.925Y-110.6
X48.75Y-110.625
X48.825Y-159.475
X49.0Y-144.85
X49.3Y-152.475
X49.3Y-154.7
X49.3Y-157.1
X49.675Y-159.5
X49.725Y-110.625
X49.75Y-125.1
X50.55Y-110.65
X50.6Y-122.025
X50.6Y-122.95
X50.6Y-124.0
X50.65Y-137.3
X50.65Y-159.5
X50.925Y-138.45
X51.175Y-152.475
X51.175Y-154.7
X51.175Y-157.1
X51.3Y-139.45
X51.35Y-140.4
X51.525Y-110.65
X51.575Y-159.5
X51.725Y-126.825
X51.925Y-130.8
X52.05Y-121.95
X52.275Y-120.15
X52.325Y-118.675
X52.4Y-123.125
X52.45Y-129.3
X52.475Y-159.5
X52.725Y-117.175
X52.85Y-111.1
X53.05Y-124.95
X53.05Y-154.7
X53.05Y-157.1
X53.2Y-135.825
X53.4Y-159.5
X53.625Y-147.45
X53.65Y-111.125
X53.75Y-138.975
X53.75Y-139.8
X53.75Y-140.6
X53.75Y-141.475
X53.975Y-135.825
X54.1Y-117.0
X54.275Y-159.5
X54.4Y-124.95
X54.675Y-138.975
X54.675Y-139.8
X54.675Y-140.6
X54.675Y-141.475
X54.8Y-129.8
X54.925Y-154.7
X54.925Y-157.1
X54.95Y-118.675
X55.0Y-147.475
X55.05Y-119.8
X55.125Y-116.3
X55.175Y-159.5
X55.575Y-138.975
X55.575Y-139.8
X55.575Y-140.6
X55.575Y-141.475
X56.0Y-124.9
X56.1Y-159.5
X56.375Y-147.45
X56.45Y-138.975
X56.45Y-139.8
X56.45Y-140.6
X56.45Y-141.475
X56.625Y-154.7
X56.625Y-157.1
X56.651Y-114.401
X56.725Y-116.125
X57.05Y-159.5
X57.3Y-125.0
X57.884Y-113.168
X57.95Y-159.5
X58.237Y-116.212
X58.275Y-149.2
X58.375Y-127.925
X58.4Y-114.35
X58.5Y-125.1
X58.5Y-152.475
X58.5Y-154.7
X58.5Y-157.1
X58.85Y-136.45
X58.875Y-159.5
X59.224Y-115.224
X59.325Y-132.7
X59.575Y-112.2
X59.575Y-128.175
X59.75Y-159.5
X59.775Y-144.7
X59.975Y-149.225
X60.05Y-116.3
X60.05Y-125.1
X60.325Y-130.875
X60.375Y-152.475
X60.375Y-154.7
X60.375Y-157.1
X60.65Y-159.5
X60.775Y-126.975
X60.8Y-114.95
X60.875Y-121.275
X61.325Y-116.25
X61.35Y-144.725
X61.4Y-147.575
X61.545Y-119.146
X61.55Y-132.25
X61.554Y-117.649
X61.575Y-159.5
X61.65Y-149.225
X61.695Y-115.0
X62.075Y-152.45
X62.075Y-154.675
X62.075Y-157.075
X62.25Y-124.875
X62.325Y-136.45
X62.375Y-132.25
X62.55Y-159.5
X62.75Y-147.6
X62.8Y-111.75
X62.9Y-146.025
X62.925Y-115.0
X62.925Y-138.825
X62.925Y-139.825
X62.925Y-142.775
X62.925Y-144.2
X62.95Y-141.3
X63.0Y-113.525
X63.45Y-148.875
X63.525Y-159.5
X63.875Y-112.975
X63.95Y-120.575
X63.95Y-122.475
X63.95Y-152.45
X63.95Y-154.675
X63.95Y-157.075
X64.175Y-119.15
X64.35Y-117.6
X64.45Y-159.5
X64.484Y-135.279
X64.6Y-110.5
X64.675Y-116.025
X64.875Y-130.975
X64.948Y-133.629
X64.995Y-111.75
X65.025Y-128.15
X65.25Y-125.25
X65.307Y-137.818
X65.325Y-114.35
X65.35Y-159.5
X65.5Y-110.5
X65.825Y-154.675
X65.825Y-157.075
X66.075Y-113.175
X66.275Y-159.5
X66.323Y-117.557
X66.375Y-121.15
X66.425Y-110.5
X66.45Y-115.2
X66.45Y-136.7
X66.475Y-133.1
X66.575Y-119.15
X66.65Y-134.9
X66.825Y-145.35
X66.85Y-140.125
X66.85Y-142.725
X67.15Y-159.5
X67.3Y-110.5
X67.5Y-145.35
X67.5Y-152.45
X67.5Y-154.675
X67.5Y-157.075
X67.55Y-116.5
X67.6Y-118.125
X67.825Y-136.775
X68.05Y-120.35
X68.05Y-159.5
X68.125Y-125.3
X68.2Y-110.5
X68.875Y-144.15
X68.9Y-142.45
X68.975Y-159.5
X69.0Y-130.7
X69.037Y-149.312
X69.125Y-110.5
X69.175Y-122.375
X69.375Y-136.775
X69.375Y-152.45
X69.375Y-154.675
X69.375Y-157.075
X69.4Y-143.4
X69.4Y-147.3
X69.425Y-118.925
X69.45Y-113.95
X69.45Y-116.225
X69.875Y-144.15
X69.9Y-142.45
X69.925Y-159.5
X70.075Y-110.5
X70.525Y-134.875
X70.525Y-149.9
X70.825Y-126.1
X70.825Y-159.5
X70.975Y-110.5
X71.25Y-152.45
X71.25Y-154.675
X71.25Y-157.075
X71.4Y-132.65
X71.45Y-137.45
X71.625Y-141.825
X71.625Y-142.65
X71.625Y-143.375
X71.625Y-144.2
X71.625Y-145.025
X71.625Y-145.85
X71.75Y-159.5
X71.9Y-110.5
X72.064Y-126.122
X72.325Y-121.55
X72.5Y-119.95
X72.5Y-149.9
X72.575Y-118.425
X72.625Y-141.825
X72.625Y-142.65
X72.625Y-143.375
X72.625Y-144.2
X72.625Y-145.025
X72.625Y-145.85
X72.625Y-159.5
X72.775Y-110.5
X73.05Y-126.1
X73.675Y-110.5
X74.025Y-159.5
X74.425Y-147.8
X74.6Y-110.5
X74.925Y-159.5
X75.025Y-149.9
X75.2Y-119.95
X75.225Y-121.625
X75.25Y-118.475
X75.25Y-134.1
X75.275Y-132.05
X75.3Y-135.575
X75.3Y-137.125
X75.561Y-110.535
X75.8Y-124.025
X75.825Y-127.2
X75.85Y-125.525
X75.95Y-159.375
X76.3Y-146.1
X76.3Y-148.325
X76.3Y-150.725
X76.6Y-142.075
X76.6Y-144.3
X76.748Y-110.854
X76.925Y-159.025
X77.425Y-132.05
X77.425Y-134.025
X77.425Y-135.725
X77.45Y-137.15
X77.65Y-111.375
X77.675Y-119.95
X77.7Y-118.475
X77.7Y-158.5
X77.75Y-123.975
X77.75Y-125.65
X77.75Y-127.1
X78.175Y-146.1
X78.175Y-148.325
X78.175Y-150.725
X78.45Y-112.175
X78.475Y-142.075
X78.475Y-144.3
X78.5Y-157.7
X78.975Y-112.95
X79.021Y-156.798
X79.325Y-113.925
X79.34Y-156.0
X79.4Y-130.35
X79.4Y-131.325
X79.4Y-132.25
X79.4Y-133.15
X79.4Y-134.075
X79.4Y-134.95
X79.4Y-135.85
X79.4Y-136.775
X79.4Y-137.725
X79.4Y-138.625
X79.4Y-139.55
X79.4Y-140.425
X79.4Y-141.325
X79.4Y-142.25
X79.4Y-143.225
X79.4Y-144.2
X79.4Y-145.125
X79.4Y-146.025
X79.4Y-146.95
X79.4Y-147.825
X79.4Y-148.725
X79.4Y-149.65
X79.4Y-150.6
X79.4Y-151.5
X79.4Y-152.425
X79.4Y-153.3
X79.4Y-154.2
X79.4Y-155.125
X79.425Y-117.6
X79.425Y-118.575
X79.425Y-119.5
X79.425Y-120.4
X79.425Y-121.325
X79.425Y-122.2
X79.425Y-123.1
X79.425Y-124.025
X79.425Y-124.975
X79.425Y-125.875
X79.425Y-126.8
X79.425Y-127.675
X79.425Y-128.575
X79.425Y-129.5
X79.45Y-114.95
X79.45Y-115.85
X79.45Y-116.775
T3
X40.28Y-112.0
X42.82Y-112.0
X45.36Y-112.0
X47.9Y-112.0
X50.44Y-112.0
T4
X44.545Y-150.6
X65.655Y-150.6
T2
G00X72.625Y-130.73
M15
G01X73.725Y-130.73
M16
G05
G00X72.625Y-139.37
M15
G01X73.725Y-139.37
M16
G05
G00X76.955Y-130.73
M15
G01X77.755Y-130.73
M16
G05
G00X76.955Y-139.37
M15
G01X77.755Y-139.37
M16
G05
M30
