%TF.GenerationSoftware,KiCad,Pcbnew,9.0.3*%
%TF.CreationDate,2026-03-08T23:38:52+02:00*%
%TF.ProjectId,CanSnif,43616e53-6e69-4662-9e6b-696361645f70,rev?*%
%TF.SameCoordinates,Original*%
%TF.FileFunction,Copper,L2,Inr*%
%TF.FilePolarity,Positive*%
%FSLAX46Y46*%
G04 Gerber Fmt 4.6, Leading zero omitted, Abs format (unit mm)*
G04 Created by KiCad (PCBNEW 9.0.3) date 2026-03-08 23:38:52*
%MOMM*%
%LPD*%
G01*
G04 APERTURE LIST*
%TA.AperFunction,ComponentPad*%
%ADD10R,1.700000X1.700000*%
%TD*%
%TA.AperFunction,ComponentPad*%
%ADD11C,1.700000*%
%TD*%
%TA.AperFunction,HeatsinkPad*%
%ADD12O,2.100000X1.000000*%
%TD*%
%TA.AperFunction,HeatsinkPad*%
%ADD13O,1.800000X1.000000*%
%TD*%
%TA.AperFunction,ComponentPad*%
%ADD14C,2.775000*%
%TD*%
%TA.AperFunction,ViaPad*%
%ADD15C,0.600000*%
%TD*%
G04 APERTURE END LIST*
D10*
%TO.N,+3V3*%
%TO.C,J3*%
X40280000Y-112000000D03*
D11*
%TO.N,SWDIO*%
X42820000Y-112000000D03*
%TO.N,SWDCLK*%
X45360000Y-112000000D03*
%TO.N,NRST*%
X47900000Y-112000000D03*
%TO.N,GND*%
X50440000Y-112000000D03*
%TD*%
D12*
%TO.N,Net-(J4-SHIELD)*%
%TO.C,J4*%
X73175000Y-139370000D03*
D13*
X77355000Y-139370000D03*
D12*
X73175000Y-130730000D03*
D13*
X77355000Y-130730000D03*
%TD*%
D14*
%TO.N,Net-(D4-A)*%
%TO.C,BT1*%
X65655000Y-150600000D03*
X44545000Y-150600000D03*
%TD*%
D15*
%TO.N,Net-(D1-A)*%
X70825000Y-126100000D03*
X72064065Y-126121526D03*
X73050000Y-126100000D03*
%TO.N,GND*%
X30500000Y-129900000D03*
X49300000Y-152475000D03*
X45550000Y-152475000D03*
X79400000Y-138625000D03*
X55575000Y-138975000D03*
X41500000Y-159475000D03*
X61544519Y-119146011D03*
X79425000Y-120400000D03*
X45625000Y-135338500D03*
X62075000Y-157075000D03*
X79400000Y-149650000D03*
X69375000Y-152450000D03*
X75250000Y-134100000D03*
X77700000Y-118475000D03*
X66075000Y-113175000D03*
X70075000Y-110500000D03*
X30550000Y-155000000D03*
X76925000Y-159025000D03*
X61350000Y-144725000D03*
X38100000Y-154750000D03*
X30500000Y-147375000D03*
X56375000Y-147450000D03*
X79450000Y-115850000D03*
X45625000Y-139738500D03*
X70975000Y-110500000D03*
X54925000Y-157100000D03*
X36575000Y-117350000D03*
X30903584Y-113226511D03*
X47425000Y-154700000D03*
X42450000Y-159475000D03*
X30500000Y-134500000D03*
X54675000Y-140600000D03*
X68975000Y-159500000D03*
X44600000Y-142850000D03*
X30500000Y-140875000D03*
X30500000Y-143750000D03*
X65825000Y-157075000D03*
X49300000Y-154700000D03*
X30500000Y-146500000D03*
X68200000Y-110500000D03*
X35725000Y-140350000D03*
X69925000Y-159500000D03*
X71250000Y-154675000D03*
X38650000Y-110550000D03*
X62075000Y-154675000D03*
X79400000Y-151500000D03*
X60800000Y-114950000D03*
X76600000Y-144300000D03*
X38450000Y-117350000D03*
X67150000Y-159500000D03*
X35000000Y-110525000D03*
X79400000Y-146950000D03*
X35900000Y-110525000D03*
X67300000Y-110500000D03*
X62925000Y-115000000D03*
X42025000Y-154700000D03*
X32675000Y-122450000D03*
X79325000Y-113925000D03*
X79400000Y-137725000D03*
X45300000Y-129975000D03*
X75850000Y-125525000D03*
X79425000Y-122200000D03*
X66825000Y-145350000D03*
X79400000Y-150600000D03*
X43225000Y-135338500D03*
X37700000Y-114375000D03*
X53750000Y-139800000D03*
X79400000Y-130350000D03*
X79400000Y-143225000D03*
X75250000Y-118475000D03*
X52475000Y-159500000D03*
X30525000Y-119950000D03*
X56650735Y-114400735D03*
X79425000Y-118575000D03*
X73675000Y-110500000D03*
X58236765Y-116211765D03*
X77650000Y-111375000D03*
X35725000Y-135750000D03*
X77700000Y-158500000D03*
X76748489Y-110853584D03*
X47025000Y-135338500D03*
X37775000Y-115900000D03*
X30500000Y-130875000D03*
X43225000Y-136638500D03*
X50650000Y-137300000D03*
X78975000Y-112950000D03*
X52400000Y-123125000D03*
X30525000Y-121750000D03*
X32525000Y-124550000D03*
X44275000Y-159475000D03*
X57883857Y-113167613D03*
X56625000Y-157100000D03*
X34438841Y-159414871D03*
X42125000Y-141850000D03*
X38425000Y-141850000D03*
X71250000Y-157075000D03*
X59224265Y-115224265D03*
X32225000Y-111525000D03*
X78475000Y-142075000D03*
X41025000Y-135750000D03*
X60775000Y-126975000D03*
X42225000Y-137150000D03*
X43900000Y-152475000D03*
X63450000Y-148875000D03*
X63950000Y-154675000D03*
X79425000Y-124025000D03*
X45350000Y-126675000D03*
X60650000Y-159500000D03*
X41950000Y-117300000D03*
X51175000Y-154700000D03*
X43850000Y-119950000D03*
X30525000Y-128125000D03*
X34700000Y-117350000D03*
X68050000Y-120350000D03*
X77425000Y-134025000D03*
X40425000Y-110575000D03*
X52275000Y-120150000D03*
X60375000Y-152475000D03*
X58500000Y-157100000D03*
X59575000Y-128175000D03*
X79400000Y-148725000D03*
X62250000Y-124875000D03*
X79425000Y-121325000D03*
X79400000Y-132250000D03*
X42025000Y-157100000D03*
X53750000Y-140600000D03*
X72500000Y-119950000D03*
X48750000Y-110625000D03*
X71900000Y-110500000D03*
X55175000Y-159500000D03*
X62550000Y-159500000D03*
X43225000Y-139738500D03*
X72775000Y-110500000D03*
X51175000Y-157100000D03*
X69450000Y-116225000D03*
X75300000Y-135575000D03*
X79400000Y-154200000D03*
X79400000Y-134075000D03*
X64175000Y-119150000D03*
X30550000Y-150100000D03*
X77675000Y-119950000D03*
X31025000Y-157000000D03*
X54925000Y-154700000D03*
X40988670Y-141850000D03*
X45925000Y-110625000D03*
X53050000Y-157100000D03*
X30500000Y-135400000D03*
X67600000Y-118125000D03*
X74025000Y-159500000D03*
X79450000Y-116775000D03*
X60375000Y-157100000D03*
X64450000Y-159500000D03*
X77750000Y-123975000D03*
X54675000Y-141475000D03*
X75800000Y-124025000D03*
X75300000Y-137125000D03*
X74925000Y-159500000D03*
X61575000Y-159500000D03*
X64350000Y-117600000D03*
X47925000Y-110600000D03*
X57050000Y-159500000D03*
X30550000Y-151925000D03*
X79450000Y-114950000D03*
X43925000Y-138038500D03*
X32675000Y-120050000D03*
X45200000Y-159475000D03*
X59750000Y-159500000D03*
X38825000Y-159475000D03*
X52725000Y-117175000D03*
X30525000Y-129050000D03*
X61325000Y-116250000D03*
X33251511Y-159096416D03*
X58500000Y-152475000D03*
X51725000Y-126825000D03*
X60375000Y-154700000D03*
X78175000Y-148325000D03*
X44525000Y-135338500D03*
X43925000Y-137118500D03*
X45725000Y-117725000D03*
X75950000Y-159375000D03*
X78175000Y-150725000D03*
X69000000Y-130700000D03*
X55575000Y-141475000D03*
X42225000Y-135750000D03*
X79400000Y-142250000D03*
X50550000Y-110650000D03*
X37675000Y-110550000D03*
X39750000Y-114325000D03*
X62075000Y-152450000D03*
X44125000Y-110600000D03*
X30500000Y-132700000D03*
X30500000Y-133625000D03*
X74600000Y-110500000D03*
X79425000Y-129500000D03*
X79425000Y-126800000D03*
X54675000Y-138975000D03*
X79400000Y-136775000D03*
X47900000Y-159475000D03*
X64600000Y-110500000D03*
X30500000Y-144675000D03*
X41700000Y-115850000D03*
X66850000Y-140125000D03*
X63000000Y-113525000D03*
X77425000Y-132050000D03*
X65306897Y-137817682D03*
X79400000Y-133150000D03*
X31425000Y-112325000D03*
X79021416Y-156798489D03*
X79400000Y-134950000D03*
X44425000Y-139738500D03*
X74425000Y-147800000D03*
X40150000Y-157100000D03*
X42025000Y-152475000D03*
X53050000Y-154700000D03*
X46900000Y-110625000D03*
X58375000Y-127925000D03*
X79425000Y-117600000D03*
X47025000Y-138338500D03*
X39600000Y-110550000D03*
X57950000Y-159500000D03*
X40575000Y-159475000D03*
X75225000Y-121625000D03*
X56450000Y-138975000D03*
X56450000Y-140600000D03*
X75825000Y-127200000D03*
X45550000Y-157100000D03*
X30500000Y-149200000D03*
X35400000Y-159450000D03*
X65325000Y-114350000D03*
X32125000Y-149975000D03*
X47025000Y-136561500D03*
X70825000Y-159500000D03*
X64875000Y-130975000D03*
X66450000Y-136700000D03*
X55575000Y-140600000D03*
X75561159Y-110535129D03*
X61554417Y-117649194D03*
X56100000Y-159500000D03*
X79425000Y-125875000D03*
X60325000Y-130875000D03*
X40150000Y-152475000D03*
X67825000Y-136775000D03*
X30550000Y-151000000D03*
X43850000Y-122350000D03*
X72625000Y-159500000D03*
X30525000Y-119050000D03*
X58500000Y-154700000D03*
X63950000Y-122475000D03*
X30500000Y-139100000D03*
X45275000Y-128900000D03*
X79400000Y-153300000D03*
X39575000Y-137350000D03*
X30525000Y-127225000D03*
X79425000Y-119500000D03*
X41625000Y-114325000D03*
X30500000Y-131800000D03*
X43850000Y-117725000D03*
X62925000Y-142775000D03*
X62925000Y-138825000D03*
X30525000Y-152950000D03*
X78500000Y-157700000D03*
X30550000Y-115375000D03*
X67500000Y-154675000D03*
X71750000Y-159500000D03*
X56450000Y-139800000D03*
X30500000Y-137275000D03*
X63950000Y-152450000D03*
X39725000Y-159475000D03*
X43900000Y-157100000D03*
X66275000Y-159500000D03*
X66425000Y-110500000D03*
X40150000Y-154700000D03*
X51525000Y-110650000D03*
X79339871Y-156000000D03*
X42325000Y-110575000D03*
X49300000Y-157100000D03*
X53400000Y-159500000D03*
X33975000Y-110650000D03*
X32125000Y-151450000D03*
X71250000Y-152450000D03*
X35725000Y-138950000D03*
X49675000Y-159500000D03*
X47000000Y-159475000D03*
X70525000Y-134875000D03*
X51175000Y-152475000D03*
X53750000Y-141475000D03*
X30550000Y-116325000D03*
X67500000Y-145350000D03*
X36850000Y-110525000D03*
X66850000Y-142725000D03*
X56450000Y-141475000D03*
X69375000Y-154675000D03*
X36925000Y-159475000D03*
X30525000Y-120875000D03*
X76300000Y-148325000D03*
X43150000Y-110600000D03*
X77425000Y-135725000D03*
X78175000Y-146100000D03*
X78450000Y-112175000D03*
X58400000Y-114350000D03*
X67550000Y-116500000D03*
X45325000Y-127650000D03*
X65500000Y-110500000D03*
X52050000Y-121950000D03*
X79400000Y-141325000D03*
X30500000Y-141800000D03*
X65825000Y-154675000D03*
X30500000Y-148275000D03*
X79400000Y-147825000D03*
X52450000Y-129300000D03*
X66322835Y-117557087D03*
X41325000Y-139850000D03*
X79400000Y-144200000D03*
X43250000Y-142825000D03*
X30585129Y-114413841D03*
X69375000Y-136775000D03*
X46875000Y-129950000D03*
X39900000Y-117350000D03*
X66475000Y-133100000D03*
X38411602Y-135750000D03*
X63950000Y-120575000D03*
X76300000Y-150725000D03*
X32525000Y-126950000D03*
X79425000Y-128575000D03*
X54275000Y-159500000D03*
X30525000Y-118125000D03*
X67500000Y-157075000D03*
X39825000Y-115850000D03*
X66575000Y-119150000D03*
X33625000Y-151475000D03*
X79400000Y-139550000D03*
X79425000Y-123100000D03*
X47425000Y-157100000D03*
X64947836Y-133628634D03*
X32675000Y-117825000D03*
X52325000Y-118675000D03*
X69375000Y-157075000D03*
X62925000Y-144200000D03*
X45725000Y-119950000D03*
X38100000Y-152525000D03*
X54675000Y-139800000D03*
X72575000Y-118425000D03*
X45550000Y-142850000D03*
X63525000Y-159500000D03*
X79425000Y-124975000D03*
X79400000Y-131325000D03*
X30500000Y-145575000D03*
X62325000Y-136450000D03*
X63875000Y-112975000D03*
X50650000Y-159500000D03*
X60875000Y-121275000D03*
X55000000Y-147475000D03*
X47425000Y-141950000D03*
X45100000Y-110600000D03*
X47425000Y-152475000D03*
X41400000Y-110575000D03*
X30500000Y-138175000D03*
X37900000Y-159475000D03*
X30550000Y-154100000D03*
X53750000Y-138975000D03*
X49725000Y-110625000D03*
X43900000Y-154700000D03*
X45725000Y-122350000D03*
X79400000Y-152425000D03*
X56725000Y-116125000D03*
X79400000Y-155125000D03*
X77450000Y-137150000D03*
X79400000Y-146025000D03*
X45550000Y-154700000D03*
X46400000Y-141825000D03*
X75275000Y-132050000D03*
X72325000Y-121550000D03*
X78475000Y-144300000D03*
X31550000Y-157775000D03*
X43375000Y-159475000D03*
X63950000Y-157075000D03*
X75200000Y-119950000D03*
X30525000Y-122650000D03*
X69425000Y-118925000D03*
X30500000Y-139975000D03*
X46125000Y-159475000D03*
X51575000Y-159500000D03*
X54800000Y-129800000D03*
X49750000Y-125100000D03*
X59975000Y-149225000D03*
X69175000Y-122375000D03*
X30525000Y-125425000D03*
X77750000Y-125650000D03*
X43225000Y-138538500D03*
X69125000Y-110500000D03*
X46975000Y-128825000D03*
X69450000Y-113950000D03*
X41325000Y-136650000D03*
X61400000Y-147575000D03*
X30525000Y-123575000D03*
X55125000Y-116300000D03*
X33000000Y-111000000D03*
X32350000Y-158575000D03*
X67500000Y-152450000D03*
X77750000Y-127100000D03*
X47025000Y-139738500D03*
X62925000Y-139825000D03*
X65350000Y-159500000D03*
X58875000Y-159500000D03*
X56625000Y-154700000D03*
X65025000Y-128150000D03*
X66450000Y-115200000D03*
X35725000Y-141850000D03*
X55575000Y-139800000D03*
X64483760Y-135278766D03*
X48825000Y-159475000D03*
X68050000Y-159500000D03*
X58275000Y-149200000D03*
X61650000Y-149225000D03*
X33600000Y-149975000D03*
X30500000Y-136325000D03*
X62950000Y-141300000D03*
X30525000Y-117150000D03*
X76600000Y-142075000D03*
X64675000Y-116025000D03*
X65250000Y-125250000D03*
X30525000Y-124525000D03*
X59575000Y-112200000D03*
X66375000Y-121150000D03*
X62900000Y-146025000D03*
X79425000Y-127675000D03*
X76300000Y-146100000D03*
X44075000Y-132850000D03*
X79400000Y-145125000D03*
X42225000Y-138550000D03*
X62750000Y-147600000D03*
X68125000Y-125300000D03*
X79400000Y-135850000D03*
X38100000Y-157150000D03*
X30500000Y-142775000D03*
X37275000Y-140250000D03*
X30525000Y-126350000D03*
X35725000Y-137250000D03*
X54950000Y-118675000D03*
X79400000Y-140425000D03*
X30675000Y-156025000D03*
%TO.N,NRST*%
X46825000Y-118225000D03*
X50925000Y-138450000D03*
%TO.N,+5V*%
X72500000Y-149900000D03*
X69037500Y-149312500D03*
X70525000Y-149900000D03*
X46950000Y-123000003D03*
X46950000Y-122300000D03*
X75025000Y-149900000D03*
X69400000Y-147300000D03*
%TO.N,+3V3*%
X71625000Y-142650000D03*
X62375000Y-132250000D03*
X72625000Y-144200000D03*
X71625000Y-145025000D03*
X53650000Y-111125000D03*
X49000000Y-144850000D03*
X72625000Y-145025000D03*
X71625000Y-144200000D03*
X50600000Y-122025000D03*
X72625000Y-145850000D03*
X72625000Y-142650000D03*
X71625000Y-141825000D03*
X52850000Y-111100000D03*
X53975000Y-135825000D03*
X50600000Y-122950000D03*
X71625000Y-143375000D03*
X72625000Y-141825000D03*
X61550000Y-132250000D03*
X50600000Y-124000000D03*
X53200000Y-135825000D03*
X44300000Y-123950000D03*
X53625000Y-147450000D03*
X72625000Y-143375000D03*
X59775000Y-144700000D03*
X71625000Y-145850000D03*
%TO.N,Net-(D1-A)*%
X66650000Y-134900000D03*
X69400000Y-143400000D03*
X69875000Y-144150000D03*
X71400000Y-132650000D03*
X68875000Y-144150000D03*
X71450000Y-137450000D03*
X69900000Y-142450000D03*
X68900000Y-142450000D03*
%TO.N,SWDIO*%
X58850000Y-136450000D03*
%TO.N,SWDCLK*%
X59325000Y-132700000D03*
%TO.N,Net-(J5-DAT1)*%
X54400000Y-124950000D03*
X55050000Y-119800000D03*
%TO.N,Net-(J5-CD{slash}DAT3)*%
X58500000Y-125100000D03*
X61695001Y-115000000D03*
%TO.N,Net-(J5-DAT2)*%
X60050000Y-116300000D03*
X60050000Y-125100000D03*
%TO.N,Net-(J5-CMD)*%
X55999999Y-124900000D03*
X62800000Y-111750000D03*
%TO.N,Net-(J5-CLK)*%
X57300000Y-125000000D03*
X64995000Y-111750000D03*
%TO.N,SDMMC1_DAT2*%
X54100000Y-117000000D03*
X53049999Y-124950000D03*
%TO.N,Net-(U1-PC0)*%
X51300000Y-139450000D03*
X38937500Y-144450000D03*
%TO.N,Net-(U1-PC1)*%
X38952500Y-147890000D03*
X51350000Y-140400000D03*
%TO.N,FDCAN_S*%
X43800000Y-130800000D03*
X51925000Y-130800000D03*
%TO.N,Net-(D4-A)*%
X41475000Y-132950000D03*
%TD*%
%TA.AperFunction,Conductor*%
%TO.N,GND*%
G36*
X75002702Y-110200617D02*
G01*
X75412917Y-110218528D01*
X75423654Y-110219468D01*
X75828057Y-110272708D01*
X75838695Y-110274583D01*
X76236925Y-110362869D01*
X76247365Y-110365667D01*
X76636363Y-110488317D01*
X76646524Y-110492015D01*
X77023363Y-110648108D01*
X77033155Y-110652674D01*
X77394965Y-110841020D01*
X77404305Y-110846413D01*
X77668387Y-111014652D01*
X77748309Y-111065568D01*
X77757170Y-111071772D01*
X78080766Y-111320076D01*
X78089053Y-111327030D01*
X78389767Y-111602583D01*
X78397416Y-111610232D01*
X78672969Y-111910946D01*
X78679923Y-111919233D01*
X78928227Y-112242829D01*
X78934431Y-112251690D01*
X79153578Y-112595680D01*
X79158987Y-112605048D01*
X79347322Y-112966838D01*
X79351894Y-112976642D01*
X79507983Y-113353473D01*
X79511683Y-113363639D01*
X79634331Y-113752630D01*
X79637131Y-113763078D01*
X79725414Y-114161296D01*
X79727292Y-114171950D01*
X79780529Y-114576326D01*
X79781472Y-114587102D01*
X79799382Y-114997297D01*
X79799500Y-115002706D01*
X79799500Y-154997293D01*
X79799382Y-155002702D01*
X79781472Y-155412897D01*
X79780529Y-155423673D01*
X79727292Y-155828049D01*
X79725414Y-155838703D01*
X79637131Y-156236921D01*
X79634331Y-156247369D01*
X79511683Y-156636360D01*
X79507983Y-156646526D01*
X79351894Y-157023357D01*
X79347322Y-157033161D01*
X79158987Y-157394951D01*
X79153578Y-157404319D01*
X78934431Y-157748309D01*
X78928227Y-157757170D01*
X78679923Y-158080766D01*
X78672969Y-158089053D01*
X78397416Y-158389767D01*
X78389767Y-158397416D01*
X78089053Y-158672969D01*
X78080766Y-158679923D01*
X77757170Y-158928227D01*
X77748309Y-158934431D01*
X77404319Y-159153578D01*
X77394951Y-159158987D01*
X77033161Y-159347322D01*
X77023357Y-159351894D01*
X76646526Y-159507983D01*
X76636360Y-159511683D01*
X76247369Y-159634331D01*
X76236921Y-159637131D01*
X75838703Y-159725414D01*
X75828049Y-159727292D01*
X75423673Y-159780529D01*
X75412897Y-159781472D01*
X75002703Y-159799382D01*
X74997294Y-159799500D01*
X35002706Y-159799500D01*
X34997297Y-159799382D01*
X34587102Y-159781472D01*
X34576326Y-159780529D01*
X34171950Y-159727292D01*
X34161296Y-159725414D01*
X33763078Y-159637131D01*
X33752630Y-159634331D01*
X33363639Y-159511683D01*
X33353473Y-159507983D01*
X32976642Y-159351894D01*
X32966838Y-159347322D01*
X32847126Y-159285004D01*
X32605042Y-159158983D01*
X32595686Y-159153582D01*
X32423685Y-159044004D01*
X32251690Y-158934431D01*
X32242829Y-158928227D01*
X31919233Y-158679923D01*
X31910946Y-158672969D01*
X31610232Y-158397416D01*
X31602583Y-158389767D01*
X31327030Y-158089053D01*
X31320076Y-158080766D01*
X31071772Y-157757170D01*
X31065568Y-157748309D01*
X31012070Y-157664334D01*
X30846413Y-157404305D01*
X30841020Y-157394965D01*
X30652674Y-157033155D01*
X30648105Y-157023357D01*
X30492016Y-156646526D01*
X30488316Y-156636360D01*
X30411982Y-156394260D01*
X30365667Y-156247365D01*
X30362868Y-156236921D01*
X30274585Y-155838703D01*
X30272707Y-155828049D01*
X30271676Y-155820214D01*
X30219468Y-155423654D01*
X30218528Y-155412917D01*
X30200618Y-155002702D01*
X30200500Y-154997293D01*
X30200500Y-154878711D01*
X33149500Y-154878711D01*
X33149500Y-155121288D01*
X33161849Y-155215094D01*
X33181162Y-155361789D01*
X33196305Y-155418304D01*
X33243947Y-155596104D01*
X33263709Y-155643813D01*
X33336776Y-155820212D01*
X33458064Y-156030289D01*
X33458066Y-156030292D01*
X33458067Y-156030293D01*
X33605733Y-156222736D01*
X33605739Y-156222743D01*
X33777256Y-156394260D01*
X33777262Y-156394265D01*
X33969711Y-156541936D01*
X34179788Y-156663224D01*
X34403900Y-156756054D01*
X34638211Y-156818838D01*
X34818586Y-156842584D01*
X34878711Y-156850500D01*
X34878712Y-156850500D01*
X35121289Y-156850500D01*
X35169388Y-156844167D01*
X35361789Y-156818838D01*
X35596100Y-156756054D01*
X35820212Y-156663224D01*
X36030289Y-156541936D01*
X36222738Y-156394265D01*
X36394265Y-156222738D01*
X36541936Y-156030289D01*
X36663224Y-155820212D01*
X36756054Y-155596100D01*
X36818838Y-155361789D01*
X36850500Y-155121288D01*
X36850500Y-154878712D01*
X36850500Y-154878711D01*
X73149500Y-154878711D01*
X73149500Y-155121288D01*
X73161849Y-155215094D01*
X73181162Y-155361789D01*
X73196305Y-155418304D01*
X73243947Y-155596104D01*
X73263709Y-155643813D01*
X73336776Y-155820212D01*
X73458064Y-156030289D01*
X73458066Y-156030292D01*
X73458067Y-156030293D01*
X73605733Y-156222736D01*
X73605739Y-156222743D01*
X73777256Y-156394260D01*
X73777262Y-156394265D01*
X73969711Y-156541936D01*
X74179788Y-156663224D01*
X74403900Y-156756054D01*
X74638211Y-156818838D01*
X74818586Y-156842584D01*
X74878711Y-156850500D01*
X74878712Y-156850500D01*
X75121289Y-156850500D01*
X75169388Y-156844167D01*
X75361789Y-156818838D01*
X75596100Y-156756054D01*
X75820212Y-156663224D01*
X76030289Y-156541936D01*
X76222738Y-156394265D01*
X76394265Y-156222738D01*
X76541936Y-156030289D01*
X76663224Y-155820212D01*
X76756054Y-155596100D01*
X76818838Y-155361789D01*
X76850500Y-155121288D01*
X76850500Y-154878712D01*
X76818838Y-154638211D01*
X76756054Y-154403900D01*
X76663224Y-154179788D01*
X76541936Y-153969711D01*
X76394265Y-153777262D01*
X76394260Y-153777256D01*
X76222743Y-153605739D01*
X76222736Y-153605733D01*
X76030293Y-153458067D01*
X76030292Y-153458066D01*
X76030289Y-153458064D01*
X75820212Y-153336776D01*
X75820205Y-153336773D01*
X75596104Y-153243947D01*
X75361785Y-153181161D01*
X75121289Y-153149500D01*
X75121288Y-153149500D01*
X74878712Y-153149500D01*
X74878711Y-153149500D01*
X74638214Y-153181161D01*
X74403895Y-153243947D01*
X74179794Y-153336773D01*
X74179785Y-153336777D01*
X73969706Y-153458067D01*
X73777263Y-153605733D01*
X73777256Y-153605739D01*
X73605739Y-153777256D01*
X73605733Y-153777263D01*
X73458067Y-153969706D01*
X73336777Y-154179785D01*
X73336773Y-154179794D01*
X73243947Y-154403895D01*
X73181161Y-154638214D01*
X73149500Y-154878711D01*
X36850500Y-154878711D01*
X36818838Y-154638211D01*
X36756054Y-154403900D01*
X36663224Y-154179788D01*
X36541936Y-153969711D01*
X36394265Y-153777262D01*
X36394260Y-153777256D01*
X36222743Y-153605739D01*
X36222736Y-153605733D01*
X36030293Y-153458067D01*
X36030292Y-153458066D01*
X36030289Y-153458064D01*
X35820212Y-153336776D01*
X35820205Y-153336773D01*
X35596104Y-153243947D01*
X35361785Y-153181161D01*
X35121289Y-153149500D01*
X35121288Y-153149500D01*
X34878712Y-153149500D01*
X34878711Y-153149500D01*
X34638214Y-153181161D01*
X34403895Y-153243947D01*
X34179794Y-153336773D01*
X34179785Y-153336777D01*
X33969706Y-153458067D01*
X33777263Y-153605733D01*
X33777256Y-153605739D01*
X33605739Y-153777256D01*
X33605733Y-153777263D01*
X33458067Y-153969706D01*
X33336777Y-154179785D01*
X33336773Y-154179794D01*
X33243947Y-154403895D01*
X33181161Y-154638214D01*
X33149500Y-154878711D01*
X30200500Y-154878711D01*
X30200500Y-150471081D01*
X42907000Y-150471081D01*
X42907000Y-150728918D01*
X42947332Y-150983566D01*
X43027007Y-151228778D01*
X43144057Y-151458499D01*
X43295604Y-151667085D01*
X43477915Y-151849396D01*
X43686501Y-152000943D01*
X43795036Y-152056244D01*
X43916221Y-152117992D01*
X43916223Y-152117992D01*
X43916226Y-152117994D01*
X44047664Y-152160701D01*
X44161433Y-152197667D01*
X44416082Y-152238000D01*
X44416087Y-152238000D01*
X44673918Y-152238000D01*
X44928566Y-152197667D01*
X45173774Y-152117994D01*
X45403499Y-152000943D01*
X45612085Y-151849396D01*
X45794396Y-151667085D01*
X45945943Y-151458499D01*
X46062994Y-151228774D01*
X46142667Y-150983566D01*
X46183000Y-150728918D01*
X46183000Y-150471081D01*
X64017000Y-150471081D01*
X64017000Y-150728918D01*
X64057332Y-150983566D01*
X64137007Y-151228778D01*
X64254057Y-151458499D01*
X64405604Y-151667085D01*
X64587915Y-151849396D01*
X64796501Y-152000943D01*
X64905036Y-152056244D01*
X65026221Y-152117992D01*
X65026223Y-152117992D01*
X65026226Y-152117994D01*
X65157664Y-152160701D01*
X65271433Y-152197667D01*
X65526082Y-152238000D01*
X65526087Y-152238000D01*
X65783918Y-152238000D01*
X66038566Y-152197667D01*
X66283774Y-152117994D01*
X66513499Y-152000943D01*
X66722085Y-151849396D01*
X66904396Y-151667085D01*
X67055943Y-151458499D01*
X67172994Y-151228774D01*
X67252667Y-150983566D01*
X67293000Y-150728918D01*
X67293000Y-150471081D01*
X67252667Y-150216433D01*
X67215701Y-150102664D01*
X67172994Y-149971226D01*
X67172992Y-149971223D01*
X67172992Y-149971221D01*
X67111244Y-149850036D01*
X67055943Y-149741501D01*
X66904396Y-149532915D01*
X66722085Y-149350604D01*
X66720565Y-149349500D01*
X66696791Y-149332227D01*
X66569886Y-149240025D01*
X68487000Y-149240025D01*
X68487000Y-149384975D01*
X68524516Y-149524985D01*
X68524517Y-149524988D01*
X68596988Y-149650511D01*
X68596990Y-149650513D01*
X68596991Y-149650515D01*
X68699485Y-149753009D01*
X68699486Y-149753010D01*
X68699488Y-149753011D01*
X68825011Y-149825482D01*
X68825012Y-149825482D01*
X68825015Y-149825484D01*
X68965025Y-149863000D01*
X68965028Y-149863000D01*
X69109972Y-149863000D01*
X69109975Y-149863000D01*
X69242368Y-149827525D01*
X69974500Y-149827525D01*
X69974500Y-149972475D01*
X70012016Y-150112485D01*
X70012017Y-150112488D01*
X70084488Y-150238011D01*
X70084490Y-150238013D01*
X70084491Y-150238015D01*
X70186985Y-150340509D01*
X70186986Y-150340510D01*
X70186988Y-150340511D01*
X70312511Y-150412982D01*
X70312512Y-150412982D01*
X70312515Y-150412984D01*
X70452525Y-150450500D01*
X70452528Y-150450500D01*
X70597472Y-150450500D01*
X70597475Y-150450500D01*
X70737485Y-150412984D01*
X70863015Y-150340509D01*
X70965509Y-150238015D01*
X71037984Y-150112485D01*
X71075500Y-149972475D01*
X71075500Y-149827525D01*
X71949500Y-149827525D01*
X71949500Y-149972475D01*
X71987016Y-150112485D01*
X71987017Y-150112488D01*
X72059488Y-150238011D01*
X72059490Y-150238013D01*
X72059491Y-150238015D01*
X72161985Y-150340509D01*
X72161986Y-150340510D01*
X72161988Y-150340511D01*
X72287511Y-150412982D01*
X72287512Y-150412982D01*
X72287515Y-150412984D01*
X72427525Y-150450500D01*
X72427528Y-150450500D01*
X72572472Y-150450500D01*
X72572475Y-150450500D01*
X72712485Y-150412984D01*
X72838015Y-150340509D01*
X72940509Y-150238015D01*
X73012984Y-150112485D01*
X73050500Y-149972475D01*
X73050500Y-149827525D01*
X74474500Y-149827525D01*
X74474500Y-149972475D01*
X74512016Y-150112485D01*
X74512017Y-150112488D01*
X74584488Y-150238011D01*
X74584490Y-150238013D01*
X74584491Y-150238015D01*
X74686985Y-150340509D01*
X74686986Y-150340510D01*
X74686988Y-150340511D01*
X74812511Y-150412982D01*
X74812512Y-150412982D01*
X74812515Y-150412984D01*
X74952525Y-150450500D01*
X74952528Y-150450500D01*
X75097472Y-150450500D01*
X75097475Y-150450500D01*
X75237485Y-150412984D01*
X75363015Y-150340509D01*
X75465509Y-150238015D01*
X75537984Y-150112485D01*
X75575500Y-149972475D01*
X75575500Y-149827525D01*
X75537984Y-149687515D01*
X75465509Y-149561985D01*
X75363015Y-149459491D01*
X75363013Y-149459490D01*
X75363011Y-149459488D01*
X75237488Y-149387017D01*
X75237489Y-149387017D01*
X75226006Y-149383940D01*
X75097475Y-149349500D01*
X74952525Y-149349500D01*
X74823993Y-149383940D01*
X74812511Y-149387017D01*
X74686988Y-149459488D01*
X74686982Y-149459493D01*
X74584493Y-149561982D01*
X74584488Y-149561988D01*
X74512017Y-149687511D01*
X74512016Y-149687515D01*
X74474500Y-149827525D01*
X73050500Y-149827525D01*
X73012984Y-149687515D01*
X72940509Y-149561985D01*
X72838015Y-149459491D01*
X72838013Y-149459490D01*
X72838011Y-149459488D01*
X72712488Y-149387017D01*
X72712489Y-149387017D01*
X72701006Y-149383940D01*
X72572475Y-149349500D01*
X72427525Y-149349500D01*
X72298993Y-149383940D01*
X72287511Y-149387017D01*
X72161988Y-149459488D01*
X72161982Y-149459493D01*
X72059493Y-149561982D01*
X72059488Y-149561988D01*
X71987017Y-149687511D01*
X71987016Y-149687515D01*
X71949500Y-149827525D01*
X71075500Y-149827525D01*
X71037984Y-149687515D01*
X70965509Y-149561985D01*
X70863015Y-149459491D01*
X70863013Y-149459490D01*
X70863011Y-149459488D01*
X70737488Y-149387017D01*
X70737489Y-149387017D01*
X70726006Y-149383940D01*
X70597475Y-149349500D01*
X70452525Y-149349500D01*
X70323993Y-149383940D01*
X70312511Y-149387017D01*
X70186988Y-149459488D01*
X70186982Y-149459493D01*
X70084493Y-149561982D01*
X70084488Y-149561988D01*
X70012017Y-149687511D01*
X70012016Y-149687515D01*
X69974500Y-149827525D01*
X69242368Y-149827525D01*
X69249985Y-149825484D01*
X69375515Y-149753009D01*
X69478009Y-149650515D01*
X69550484Y-149524985D01*
X69588000Y-149384975D01*
X69588000Y-149240025D01*
X69550484Y-149100015D01*
X69540086Y-149082006D01*
X69478011Y-148974488D01*
X69478006Y-148974482D01*
X69375517Y-148871993D01*
X69375511Y-148871988D01*
X69249988Y-148799517D01*
X69249989Y-148799517D01*
X69238506Y-148796440D01*
X69109975Y-148762000D01*
X68965025Y-148762000D01*
X68836493Y-148796440D01*
X68825011Y-148799517D01*
X68699488Y-148871988D01*
X68699482Y-148871993D01*
X68596993Y-148974482D01*
X68596988Y-148974488D01*
X68524517Y-149100011D01*
X68524516Y-149100015D01*
X68487000Y-149240025D01*
X66569886Y-149240025D01*
X66513499Y-149199057D01*
X66283778Y-149082007D01*
X66038566Y-149002332D01*
X65783918Y-148962000D01*
X65783913Y-148962000D01*
X65526087Y-148962000D01*
X65526082Y-148962000D01*
X65271433Y-149002332D01*
X65026221Y-149082007D01*
X64796500Y-149199057D01*
X64677494Y-149285520D01*
X64587915Y-149350604D01*
X64587913Y-149350606D01*
X64587912Y-149350606D01*
X64405606Y-149532912D01*
X64405606Y-149532913D01*
X64405604Y-149532915D01*
X64340520Y-149622494D01*
X64254057Y-149741500D01*
X64137007Y-149971221D01*
X64057332Y-150216433D01*
X64017000Y-150471081D01*
X46183000Y-150471081D01*
X46142667Y-150216433D01*
X46105701Y-150102664D01*
X46062994Y-149971226D01*
X46062992Y-149971223D01*
X46062992Y-149971221D01*
X46001244Y-149850036D01*
X45945943Y-149741501D01*
X45794396Y-149532915D01*
X45612085Y-149350604D01*
X45403499Y-149199057D01*
X45173778Y-149082007D01*
X44928566Y-149002332D01*
X44673918Y-148962000D01*
X44673913Y-148962000D01*
X44416087Y-148962000D01*
X44416082Y-148962000D01*
X44161433Y-149002332D01*
X43916221Y-149082007D01*
X43686500Y-149199057D01*
X43567494Y-149285520D01*
X43477915Y-149350604D01*
X43477913Y-149350606D01*
X43477912Y-149350606D01*
X43295606Y-149532912D01*
X43295606Y-149532913D01*
X43295604Y-149532915D01*
X43230520Y-149622494D01*
X43144057Y-149741500D01*
X43027007Y-149971221D01*
X42947332Y-150216433D01*
X42907000Y-150471081D01*
X30200500Y-150471081D01*
X30200500Y-147817525D01*
X38402000Y-147817525D01*
X38402000Y-147962475D01*
X38439516Y-148102485D01*
X38439517Y-148102488D01*
X38511988Y-148228011D01*
X38511990Y-148228013D01*
X38511991Y-148228015D01*
X38614485Y-148330509D01*
X38614486Y-148330510D01*
X38614488Y-148330511D01*
X38740011Y-148402982D01*
X38740012Y-148402982D01*
X38740015Y-148402984D01*
X38880025Y-148440500D01*
X38880028Y-148440500D01*
X39024972Y-148440500D01*
X39024975Y-148440500D01*
X39164985Y-148402984D01*
X39290515Y-148330509D01*
X39393009Y-148228015D01*
X39465484Y-148102485D01*
X39503000Y-147962475D01*
X39503000Y-147817525D01*
X39465484Y-147677515D01*
X39456806Y-147662485D01*
X39393011Y-147551988D01*
X39393006Y-147551982D01*
X39290517Y-147449493D01*
X39290511Y-147449488D01*
X39165868Y-147377525D01*
X53074500Y-147377525D01*
X53074500Y-147522475D01*
X53105460Y-147638017D01*
X53112017Y-147662488D01*
X53184488Y-147788011D01*
X53184490Y-147788013D01*
X53184491Y-147788015D01*
X53286985Y-147890509D01*
X53286986Y-147890510D01*
X53286988Y-147890511D01*
X53412511Y-147962982D01*
X53412512Y-147962982D01*
X53412515Y-147962984D01*
X53552525Y-148000500D01*
X53552528Y-148000500D01*
X53697472Y-148000500D01*
X53697475Y-148000500D01*
X53837485Y-147962984D01*
X53963015Y-147890509D01*
X54065509Y-147788015D01*
X54137984Y-147662485D01*
X54175500Y-147522475D01*
X54175500Y-147377525D01*
X54137984Y-147237515D01*
X54132217Y-147227527D01*
X54132216Y-147227525D01*
X68849500Y-147227525D01*
X68849500Y-147372475D01*
X68887016Y-147512485D01*
X68887017Y-147512488D01*
X68959488Y-147638011D01*
X68959490Y-147638013D01*
X68959491Y-147638015D01*
X69061985Y-147740509D01*
X69061986Y-147740510D01*
X69061988Y-147740511D01*
X69187511Y-147812982D01*
X69187512Y-147812982D01*
X69187515Y-147812984D01*
X69327525Y-147850500D01*
X69327528Y-147850500D01*
X69472472Y-147850500D01*
X69472475Y-147850500D01*
X69612485Y-147812984D01*
X69738015Y-147740509D01*
X69840509Y-147638015D01*
X69912984Y-147512485D01*
X69950500Y-147372475D01*
X69950500Y-147227525D01*
X69912984Y-147087515D01*
X69840509Y-146961985D01*
X69738015Y-146859491D01*
X69738013Y-146859490D01*
X69738011Y-146859488D01*
X69612488Y-146787017D01*
X69612489Y-146787017D01*
X69601006Y-146783940D01*
X69472475Y-146749500D01*
X69327525Y-146749500D01*
X69198993Y-146783940D01*
X69187511Y-146787017D01*
X69061988Y-146859488D01*
X69061982Y-146859493D01*
X68959493Y-146961982D01*
X68959488Y-146961988D01*
X68887017Y-147087511D01*
X68887016Y-147087515D01*
X68849500Y-147227525D01*
X54132216Y-147227525D01*
X54065511Y-147111988D01*
X54065506Y-147111982D01*
X53963017Y-147009493D01*
X53963011Y-147009488D01*
X53837488Y-146937017D01*
X53837489Y-146937017D01*
X53826006Y-146933940D01*
X53697475Y-146899500D01*
X53552525Y-146899500D01*
X53423993Y-146933940D01*
X53412511Y-146937017D01*
X53286988Y-147009488D01*
X53286982Y-147009493D01*
X53184493Y-147111982D01*
X53184488Y-147111988D01*
X53112017Y-147237511D01*
X53112016Y-147237515D01*
X53074500Y-147377525D01*
X39165868Y-147377525D01*
X39164988Y-147377017D01*
X39164989Y-147377017D01*
X39148027Y-147372472D01*
X39024975Y-147339500D01*
X38880025Y-147339500D01*
X38756973Y-147372472D01*
X38740011Y-147377017D01*
X38614488Y-147449488D01*
X38614482Y-147449493D01*
X38511993Y-147551982D01*
X38511988Y-147551988D01*
X38439517Y-147677511D01*
X38439516Y-147677515D01*
X38402000Y-147817525D01*
X30200500Y-147817525D01*
X30200500Y-144377525D01*
X38387000Y-144377525D01*
X38387000Y-144522475D01*
X38421570Y-144651490D01*
X38424517Y-144662488D01*
X38496988Y-144788011D01*
X38496990Y-144788013D01*
X38496991Y-144788015D01*
X38599485Y-144890509D01*
X38599486Y-144890510D01*
X38599488Y-144890511D01*
X38725011Y-144962982D01*
X38725012Y-144962982D01*
X38725015Y-144962984D01*
X38865025Y-145000500D01*
X38865028Y-145000500D01*
X39009972Y-145000500D01*
X39009975Y-145000500D01*
X39149985Y-144962984D01*
X39275515Y-144890509D01*
X39378009Y-144788015D01*
X39384065Y-144777525D01*
X48449500Y-144777525D01*
X48449500Y-144922475D01*
X48480460Y-145038017D01*
X48487017Y-145062488D01*
X48559488Y-145188011D01*
X48559490Y-145188013D01*
X48559491Y-145188015D01*
X48661985Y-145290509D01*
X48661986Y-145290510D01*
X48661988Y-145290511D01*
X48787511Y-145362982D01*
X48787512Y-145362982D01*
X48787515Y-145362984D01*
X48927525Y-145400500D01*
X48927528Y-145400500D01*
X49072472Y-145400500D01*
X49072475Y-145400500D01*
X49212485Y-145362984D01*
X49338015Y-145290509D01*
X49440509Y-145188015D01*
X49512984Y-145062485D01*
X49550500Y-144922475D01*
X49550500Y-144777525D01*
X49512984Y-144637515D01*
X49507217Y-144627527D01*
X49507216Y-144627525D01*
X59224500Y-144627525D01*
X59224500Y-144772475D01*
X59256128Y-144890511D01*
X59262017Y-144912488D01*
X59334488Y-145038011D01*
X59334490Y-145038013D01*
X59334491Y-145038015D01*
X59436985Y-145140509D01*
X59436986Y-145140510D01*
X59436988Y-145140511D01*
X59562511Y-145212982D01*
X59562512Y-145212982D01*
X59562515Y-145212984D01*
X59702525Y-145250500D01*
X59702528Y-145250500D01*
X59847472Y-145250500D01*
X59847475Y-145250500D01*
X59987485Y-145212984D01*
X60113015Y-145140509D01*
X60215509Y-145038015D01*
X60287984Y-144912485D01*
X60325500Y-144772475D01*
X60325500Y-144627525D01*
X60287984Y-144487515D01*
X60244665Y-144412485D01*
X60215511Y-144361988D01*
X60215506Y-144361982D01*
X60113017Y-144259493D01*
X60113011Y-144259488D01*
X59987490Y-144187018D01*
X59987487Y-144187017D01*
X59987485Y-144187016D01*
X59847475Y-144149500D01*
X59702525Y-144149500D01*
X59573993Y-144183940D01*
X59562511Y-144187017D01*
X59436988Y-144259488D01*
X59436982Y-144259493D01*
X59334493Y-144361982D01*
X59334488Y-144361988D01*
X59262017Y-144487511D01*
X59262016Y-144487515D01*
X59224500Y-144627525D01*
X49507216Y-144627525D01*
X49440511Y-144511988D01*
X49440506Y-144511982D01*
X49338017Y-144409493D01*
X49338011Y-144409488D01*
X49212488Y-144337017D01*
X49212489Y-144337017D01*
X49201006Y-144333940D01*
X49072475Y-144299500D01*
X48927525Y-144299500D01*
X48798993Y-144333940D01*
X48787511Y-144337017D01*
X48661988Y-144409488D01*
X48661982Y-144409493D01*
X48559493Y-144511982D01*
X48559488Y-144511988D01*
X48487017Y-144637511D01*
X48487016Y-144637515D01*
X48449500Y-144777525D01*
X39384065Y-144777525D01*
X39450484Y-144662485D01*
X39488000Y-144522475D01*
X39488000Y-144377525D01*
X39450484Y-144237515D01*
X39421329Y-144187018D01*
X39378011Y-144111988D01*
X39378006Y-144111982D01*
X39343549Y-144077525D01*
X68324500Y-144077525D01*
X68324500Y-144222475D01*
X68337897Y-144272472D01*
X68362017Y-144362488D01*
X68434488Y-144488011D01*
X68434490Y-144488013D01*
X68434491Y-144488015D01*
X68536985Y-144590509D01*
X68536986Y-144590510D01*
X68536988Y-144590511D01*
X68662511Y-144662982D01*
X68662512Y-144662982D01*
X68662515Y-144662984D01*
X68802525Y-144700500D01*
X68802528Y-144700500D01*
X68947472Y-144700500D01*
X68947475Y-144700500D01*
X69087485Y-144662984D01*
X69213015Y-144590509D01*
X69287319Y-144516205D01*
X69348642Y-144482720D01*
X69418334Y-144487704D01*
X69462681Y-144516205D01*
X69536985Y-144590509D01*
X69536986Y-144590510D01*
X69536988Y-144590511D01*
X69662511Y-144662982D01*
X69662512Y-144662982D01*
X69662515Y-144662984D01*
X69802525Y-144700500D01*
X69802528Y-144700500D01*
X69947472Y-144700500D01*
X69947475Y-144700500D01*
X70087485Y-144662984D01*
X70213015Y-144590509D01*
X70315509Y-144488015D01*
X70387984Y-144362485D01*
X70425500Y-144222475D01*
X70425500Y-144077525D01*
X70387984Y-143937515D01*
X70387696Y-143937017D01*
X70315511Y-143811988D01*
X70315506Y-143811982D01*
X70213017Y-143709493D01*
X70213011Y-143709488D01*
X70087489Y-143637017D01*
X70081112Y-143635308D01*
X70038312Y-143623840D01*
X69978654Y-143587475D01*
X69948126Y-143524628D01*
X69950222Y-143480635D01*
X69949439Y-143480532D01*
X69950500Y-143472474D01*
X69950500Y-143327527D01*
X69950500Y-143327525D01*
X69912984Y-143187515D01*
X69908246Y-143179308D01*
X69891774Y-143111408D01*
X69914627Y-143045381D01*
X69969549Y-143002191D01*
X69983528Y-142997538D01*
X70112485Y-142962984D01*
X70238015Y-142890509D01*
X70340509Y-142788015D01*
X70412984Y-142662485D01*
X70450500Y-142522475D01*
X70450500Y-142377525D01*
X70412984Y-142237515D01*
X70412975Y-142237500D01*
X70340511Y-142111988D01*
X70340506Y-142111982D01*
X70238017Y-142009493D01*
X70238011Y-142009488D01*
X70112488Y-141937017D01*
X70112489Y-141937017D01*
X70101006Y-141933940D01*
X69972475Y-141899500D01*
X69827525Y-141899500D01*
X69698993Y-141933940D01*
X69687511Y-141937017D01*
X69561988Y-142009488D01*
X69561982Y-142009493D01*
X69487681Y-142083795D01*
X69426358Y-142117280D01*
X69356666Y-142112296D01*
X69312319Y-142083795D01*
X69238017Y-142009493D01*
X69238011Y-142009488D01*
X69112488Y-141937017D01*
X69112489Y-141937017D01*
X69101006Y-141933940D01*
X68972475Y-141899500D01*
X68827525Y-141899500D01*
X68698993Y-141933940D01*
X68687511Y-141937017D01*
X68561988Y-142009488D01*
X68561982Y-142009493D01*
X68459493Y-142111982D01*
X68459488Y-142111988D01*
X68387017Y-142237511D01*
X68387016Y-142237515D01*
X68349500Y-142377525D01*
X68349500Y-142522475D01*
X68387016Y-142662485D01*
X68387017Y-142662488D01*
X68459488Y-142788011D01*
X68459490Y-142788013D01*
X68459491Y-142788015D01*
X68561985Y-142890509D01*
X68687515Y-142962984D01*
X68816461Y-142997535D01*
X68876120Y-143033899D01*
X68906649Y-143096746D01*
X68898354Y-143166122D01*
X68891754Y-143179308D01*
X68887017Y-143187512D01*
X68887016Y-143187514D01*
X68887016Y-143187515D01*
X68849500Y-143327525D01*
X68849500Y-143327527D01*
X68849500Y-143472475D01*
X68849859Y-143475203D01*
X68849500Y-143477504D01*
X68849500Y-143480603D01*
X68849017Y-143480603D01*
X68839091Y-143544238D01*
X68792709Y-143596492D01*
X68759014Y-143611159D01*
X68662510Y-143637017D01*
X68536988Y-143709488D01*
X68536982Y-143709493D01*
X68434493Y-143811982D01*
X68434488Y-143811988D01*
X68362017Y-143937511D01*
X68362016Y-143937515D01*
X68324500Y-144077525D01*
X39343549Y-144077525D01*
X39275517Y-144009493D01*
X39275511Y-144009488D01*
X39149988Y-143937017D01*
X39149989Y-143937017D01*
X39138506Y-143933940D01*
X39009975Y-143899500D01*
X38865025Y-143899500D01*
X38736493Y-143933940D01*
X38725011Y-143937017D01*
X38599488Y-144009488D01*
X38599482Y-144009493D01*
X38496993Y-144111982D01*
X38496988Y-144111988D01*
X38424517Y-144237511D01*
X38424516Y-144237515D01*
X38387000Y-144377525D01*
X30200500Y-144377525D01*
X30200500Y-141752525D01*
X71074500Y-141752525D01*
X71074500Y-141897475D01*
X71112016Y-142037485D01*
X71112017Y-142037488D01*
X71188555Y-142170054D01*
X71187147Y-142170866D01*
X71208917Y-142227195D01*
X71194872Y-142295639D01*
X71185590Y-142310080D01*
X71112017Y-142437511D01*
X71112016Y-142437515D01*
X71074500Y-142577525D01*
X71074500Y-142722475D01*
X71108537Y-142849500D01*
X71112017Y-142862488D01*
X71162831Y-142950500D01*
X71179304Y-143018400D01*
X71162831Y-143074500D01*
X71112017Y-143162511D01*
X71112016Y-143162515D01*
X71074500Y-143302525D01*
X71074500Y-143447475D01*
X71112016Y-143587485D01*
X71112017Y-143587488D01*
X71188555Y-143720054D01*
X71187147Y-143720866D01*
X71208917Y-143777195D01*
X71194872Y-143845639D01*
X71185590Y-143860080D01*
X71112017Y-143987511D01*
X71112016Y-143987515D01*
X71074500Y-144127525D01*
X71074500Y-144272475D01*
X71102649Y-144377527D01*
X71112017Y-144412488D01*
X71188555Y-144545054D01*
X71187147Y-144545866D01*
X71208917Y-144602195D01*
X71194872Y-144670639D01*
X71185590Y-144685080D01*
X71112017Y-144812511D01*
X71112016Y-144812515D01*
X71074500Y-144952525D01*
X71074500Y-145097475D01*
X71105451Y-145212984D01*
X71112017Y-145237488D01*
X71188555Y-145370054D01*
X71187147Y-145370866D01*
X71208917Y-145427195D01*
X71194872Y-145495639D01*
X71185590Y-145510080D01*
X71112017Y-145637511D01*
X71112016Y-145637515D01*
X71074500Y-145777525D01*
X71074500Y-145922475D01*
X71112016Y-146062485D01*
X71112017Y-146062488D01*
X71184488Y-146188011D01*
X71184490Y-146188013D01*
X71184491Y-146188015D01*
X71286985Y-146290509D01*
X71286986Y-146290510D01*
X71286988Y-146290511D01*
X71412511Y-146362982D01*
X71412512Y-146362982D01*
X71412515Y-146362984D01*
X71552525Y-146400500D01*
X71552528Y-146400500D01*
X71697472Y-146400500D01*
X71697475Y-146400500D01*
X71837485Y-146362984D01*
X71963015Y-146290509D01*
X72037319Y-146216205D01*
X72098642Y-146182720D01*
X72168334Y-146187704D01*
X72212681Y-146216205D01*
X72286985Y-146290509D01*
X72286986Y-146290510D01*
X72286988Y-146290511D01*
X72412511Y-146362982D01*
X72412512Y-146362982D01*
X72412515Y-146362984D01*
X72552525Y-146400500D01*
X72552528Y-146400500D01*
X72697472Y-146400500D01*
X72697475Y-146400500D01*
X72837485Y-146362984D01*
X72963015Y-146290509D01*
X73065509Y-146188015D01*
X73137984Y-146062485D01*
X73175500Y-145922475D01*
X73175500Y-145777525D01*
X73137984Y-145637515D01*
X73065509Y-145511985D01*
X73065508Y-145511984D01*
X73061445Y-145504946D01*
X73062854Y-145504132D01*
X73041083Y-145447819D01*
X73055120Y-145379374D01*
X73064409Y-145364919D01*
X73065507Y-145363016D01*
X73065509Y-145363015D01*
X73137984Y-145237485D01*
X73175500Y-145097475D01*
X73175500Y-144952525D01*
X73137984Y-144812515D01*
X73123838Y-144788014D01*
X73061445Y-144679946D01*
X73062854Y-144679132D01*
X73041083Y-144622819D01*
X73055120Y-144554374D01*
X73064409Y-144539919D01*
X73065507Y-144538016D01*
X73065509Y-144538015D01*
X73137984Y-144412485D01*
X73175500Y-144272475D01*
X73175500Y-144127525D01*
X73137984Y-143987515D01*
X73109116Y-143937515D01*
X73061445Y-143854946D01*
X73062854Y-143854132D01*
X73041083Y-143797819D01*
X73055120Y-143729374D01*
X73064409Y-143714919D01*
X73065507Y-143713016D01*
X73065509Y-143713015D01*
X73137984Y-143587485D01*
X73175500Y-143447475D01*
X73175500Y-143302525D01*
X73137984Y-143162515D01*
X73087167Y-143074498D01*
X73070695Y-143006601D01*
X73087168Y-142950500D01*
X73137984Y-142862485D01*
X73175500Y-142722475D01*
X73175500Y-142577525D01*
X73137984Y-142437515D01*
X73065509Y-142311985D01*
X73065508Y-142311984D01*
X73061445Y-142304946D01*
X73062854Y-142304132D01*
X73041083Y-142247819D01*
X73055120Y-142179374D01*
X73064409Y-142164919D01*
X73065507Y-142163016D01*
X73065509Y-142163015D01*
X73137984Y-142037485D01*
X73175500Y-141897475D01*
X73175500Y-141752525D01*
X73137984Y-141612515D01*
X73065509Y-141486985D01*
X72963015Y-141384491D01*
X72963013Y-141384490D01*
X72963011Y-141384488D01*
X72837488Y-141312017D01*
X72837489Y-141312017D01*
X72826006Y-141308940D01*
X72697475Y-141274500D01*
X72552525Y-141274500D01*
X72423993Y-141308940D01*
X72412511Y-141312017D01*
X72286988Y-141384488D01*
X72286982Y-141384493D01*
X72212681Y-141458795D01*
X72151358Y-141492280D01*
X72081666Y-141487296D01*
X72037319Y-141458795D01*
X71963017Y-141384493D01*
X71963011Y-141384488D01*
X71837488Y-141312017D01*
X71837489Y-141312017D01*
X71826006Y-141308940D01*
X71697475Y-141274500D01*
X71552525Y-141274500D01*
X71423993Y-141308940D01*
X71412511Y-141312017D01*
X71286988Y-141384488D01*
X71286982Y-141384493D01*
X71184493Y-141486982D01*
X71184488Y-141486988D01*
X71112017Y-141612511D01*
X71112016Y-141612515D01*
X71074500Y-141752525D01*
X30200500Y-141752525D01*
X30200500Y-138377525D01*
X50374500Y-138377525D01*
X50374500Y-138522475D01*
X50412016Y-138662485D01*
X50412017Y-138662488D01*
X50484488Y-138788011D01*
X50484490Y-138788013D01*
X50484491Y-138788015D01*
X50586985Y-138890509D01*
X50586986Y-138890510D01*
X50586988Y-138890511D01*
X50712511Y-138962982D01*
X50712513Y-138962983D01*
X50712515Y-138962984D01*
X50758207Y-138975227D01*
X50817866Y-139011590D01*
X50848396Y-139074437D01*
X50840102Y-139143813D01*
X50833500Y-139157001D01*
X50787017Y-139237511D01*
X50787016Y-139237515D01*
X50749500Y-139377525D01*
X50749500Y-139522475D01*
X50765580Y-139582485D01*
X50787017Y-139662488D01*
X50859488Y-139788011D01*
X50859493Y-139788017D01*
X50933795Y-139862319D01*
X50967280Y-139923642D01*
X50962296Y-139993334D01*
X50933795Y-140037681D01*
X50909493Y-140061982D01*
X50909488Y-140061988D01*
X50837017Y-140187511D01*
X50837016Y-140187515D01*
X50799500Y-140327525D01*
X50799500Y-140472475D01*
X50837016Y-140612485D01*
X50837017Y-140612488D01*
X50909488Y-140738011D01*
X50909490Y-140738013D01*
X50909491Y-140738015D01*
X51011985Y-140840509D01*
X51011986Y-140840510D01*
X51011988Y-140840511D01*
X51137511Y-140912982D01*
X51137512Y-140912982D01*
X51137515Y-140912984D01*
X51277525Y-140950500D01*
X51277528Y-140950500D01*
X51422472Y-140950500D01*
X51422475Y-140950500D01*
X51562485Y-140912984D01*
X51688015Y-140840509D01*
X51790509Y-140738015D01*
X51862984Y-140612485D01*
X51900500Y-140472475D01*
X51900500Y-140327525D01*
X51862984Y-140187515D01*
X51790509Y-140061985D01*
X51716205Y-139987681D01*
X51682720Y-139926358D01*
X51687704Y-139856666D01*
X51716205Y-139812319D01*
X51718018Y-139810506D01*
X51740509Y-139788015D01*
X51812984Y-139662485D01*
X51850500Y-139522475D01*
X51850500Y-139377525D01*
X51829064Y-139297525D01*
X72074500Y-139297525D01*
X72074500Y-139442475D01*
X72112016Y-139582485D01*
X72112017Y-139582488D01*
X72184488Y-139708011D01*
X72184490Y-139708013D01*
X72184491Y-139708015D01*
X72286985Y-139810509D01*
X72286986Y-139810510D01*
X72286988Y-139810511D01*
X72412511Y-139882982D01*
X72412512Y-139882982D01*
X72412515Y-139882984D01*
X72552525Y-139920500D01*
X72552528Y-139920500D01*
X73797472Y-139920500D01*
X73797475Y-139920500D01*
X73937485Y-139882984D01*
X74063015Y-139810509D01*
X74165509Y-139708015D01*
X74237984Y-139582485D01*
X74275500Y-139442475D01*
X74275500Y-139297525D01*
X76404500Y-139297525D01*
X76404500Y-139442475D01*
X76442016Y-139582485D01*
X76442017Y-139582488D01*
X76514488Y-139708011D01*
X76514490Y-139708013D01*
X76514491Y-139708015D01*
X76616985Y-139810509D01*
X76616986Y-139810510D01*
X76616988Y-139810511D01*
X76742511Y-139882982D01*
X76742512Y-139882982D01*
X76742515Y-139882984D01*
X76882525Y-139920500D01*
X76882528Y-139920500D01*
X77827472Y-139920500D01*
X77827475Y-139920500D01*
X77967485Y-139882984D01*
X78093015Y-139810509D01*
X78195509Y-139708015D01*
X78267984Y-139582485D01*
X78305500Y-139442475D01*
X78305500Y-139297525D01*
X78267984Y-139157515D01*
X78267687Y-139157001D01*
X78195511Y-139031988D01*
X78195506Y-139031982D01*
X78093017Y-138929493D01*
X78093011Y-138929488D01*
X77967488Y-138857017D01*
X77967489Y-138857017D01*
X77956006Y-138853940D01*
X77827475Y-138819500D01*
X76882525Y-138819500D01*
X76753993Y-138853940D01*
X76742511Y-138857017D01*
X76616988Y-138929488D01*
X76616982Y-138929493D01*
X76514493Y-139031982D01*
X76514488Y-139031988D01*
X76442017Y-139157511D01*
X76442016Y-139157515D01*
X76404500Y-139297525D01*
X74275500Y-139297525D01*
X74237984Y-139157515D01*
X74237687Y-139157001D01*
X74165511Y-139031988D01*
X74165506Y-139031982D01*
X74063017Y-138929493D01*
X74063011Y-138929488D01*
X73937488Y-138857017D01*
X73937489Y-138857017D01*
X73926006Y-138853940D01*
X73797475Y-138819500D01*
X72552525Y-138819500D01*
X72423993Y-138853940D01*
X72412511Y-138857017D01*
X72286988Y-138929488D01*
X72286982Y-138929493D01*
X72184493Y-139031982D01*
X72184488Y-139031988D01*
X72112017Y-139157511D01*
X72112016Y-139157515D01*
X72074500Y-139297525D01*
X51829064Y-139297525D01*
X51812984Y-139237515D01*
X51740509Y-139111985D01*
X51638015Y-139009491D01*
X51638013Y-139009490D01*
X51638011Y-139009488D01*
X51512488Y-138937017D01*
X51512489Y-138937017D01*
X51507159Y-138935589D01*
X51466790Y-138924772D01*
X51407132Y-138888408D01*
X51376603Y-138825561D01*
X51384898Y-138756185D01*
X51391500Y-138742997D01*
X51437981Y-138662490D01*
X51437982Y-138662489D01*
X51437982Y-138662487D01*
X51437984Y-138662485D01*
X51475500Y-138522475D01*
X51475500Y-138377525D01*
X51437984Y-138237515D01*
X51365509Y-138111985D01*
X51263015Y-138009491D01*
X51263013Y-138009490D01*
X51263011Y-138009488D01*
X51137488Y-137937017D01*
X51137489Y-137937017D01*
X51126006Y-137933940D01*
X50997475Y-137899500D01*
X50852525Y-137899500D01*
X50723993Y-137933940D01*
X50712511Y-137937017D01*
X50586988Y-138009488D01*
X50586982Y-138009493D01*
X50484493Y-138111982D01*
X50484488Y-138111988D01*
X50412017Y-138237511D01*
X50412016Y-138237515D01*
X50374500Y-138377525D01*
X30200500Y-138377525D01*
X30200500Y-137377525D01*
X70899500Y-137377525D01*
X70899500Y-137522475D01*
X70916692Y-137586635D01*
X70937017Y-137662488D01*
X71009488Y-137788011D01*
X71009490Y-137788013D01*
X71009491Y-137788015D01*
X71111985Y-137890509D01*
X71111986Y-137890510D01*
X71111988Y-137890511D01*
X71237511Y-137962982D01*
X71237512Y-137962982D01*
X71237515Y-137962984D01*
X71377525Y-138000500D01*
X71377528Y-138000500D01*
X71522472Y-138000500D01*
X71522475Y-138000500D01*
X71662485Y-137962984D01*
X71788015Y-137890509D01*
X71814290Y-137864234D01*
X73099500Y-137864234D01*
X73099500Y-138015765D01*
X73138719Y-138162136D01*
X73176602Y-138227750D01*
X73214485Y-138293365D01*
X73321635Y-138400515D01*
X73452865Y-138476281D01*
X73599234Y-138515500D01*
X73599236Y-138515500D01*
X73750764Y-138515500D01*
X73750766Y-138515500D01*
X73897135Y-138476281D01*
X74028365Y-138400515D01*
X74135515Y-138293365D01*
X74211281Y-138162135D01*
X74250500Y-138015766D01*
X74250500Y-137864234D01*
X74211281Y-137717865D01*
X74135515Y-137586635D01*
X74028365Y-137479485D01*
X73962750Y-137441602D01*
X73897136Y-137403719D01*
X73799384Y-137377527D01*
X73750766Y-137364500D01*
X73599234Y-137364500D01*
X73452863Y-137403719D01*
X73321635Y-137479485D01*
X73321632Y-137479487D01*
X73214487Y-137586632D01*
X73214485Y-137586635D01*
X73138719Y-137717863D01*
X73099500Y-137864234D01*
X71814290Y-137864234D01*
X71890509Y-137788015D01*
X71962984Y-137662485D01*
X72000500Y-137522475D01*
X72000500Y-137377525D01*
X71962984Y-137237515D01*
X71890509Y-137111985D01*
X71788015Y-137009491D01*
X71788013Y-137009490D01*
X71788011Y-137009488D01*
X71662488Y-136937017D01*
X71662489Y-136937017D01*
X71651006Y-136933940D01*
X71522475Y-136899500D01*
X71377525Y-136899500D01*
X71248993Y-136933940D01*
X71237511Y-136937017D01*
X71111988Y-137009488D01*
X71111982Y-137009493D01*
X71009493Y-137111982D01*
X71009488Y-137111988D01*
X70937017Y-137237511D01*
X70937016Y-137237515D01*
X70899500Y-137377525D01*
X30200500Y-137377525D01*
X30200500Y-136377525D01*
X58299500Y-136377525D01*
X58299500Y-136522475D01*
X58337016Y-136662485D01*
X58337017Y-136662488D01*
X58409488Y-136788011D01*
X58409490Y-136788013D01*
X58409491Y-136788015D01*
X58511985Y-136890509D01*
X58511986Y-136890510D01*
X58511988Y-136890511D01*
X58637511Y-136962982D01*
X58637512Y-136962982D01*
X58637515Y-136962984D01*
X58777525Y-137000500D01*
X58777528Y-137000500D01*
X58922472Y-137000500D01*
X58922475Y-137000500D01*
X59062485Y-136962984D01*
X59188015Y-136890509D01*
X59290509Y-136788015D01*
X59362984Y-136662485D01*
X59400500Y-136522475D01*
X59400500Y-136377525D01*
X59362984Y-136237515D01*
X59319972Y-136163017D01*
X59290511Y-136111988D01*
X59290506Y-136111982D01*
X59188017Y-136009493D01*
X59188011Y-136009488D01*
X59062488Y-135937017D01*
X59062489Y-135937017D01*
X59051006Y-135933940D01*
X58922475Y-135899500D01*
X58777525Y-135899500D01*
X58648993Y-135933940D01*
X58637511Y-135937017D01*
X58511988Y-136009488D01*
X58511982Y-136009493D01*
X58409493Y-136111982D01*
X58409488Y-136111988D01*
X58337017Y-136237511D01*
X58337016Y-136237515D01*
X58299500Y-136377525D01*
X30200500Y-136377525D01*
X30200500Y-135752525D01*
X52649500Y-135752525D01*
X52649500Y-135897475D01*
X52687016Y-136037485D01*
X52687017Y-136037488D01*
X52759488Y-136163011D01*
X52759490Y-136163013D01*
X52759491Y-136163015D01*
X52861985Y-136265509D01*
X52861986Y-136265510D01*
X52861988Y-136265511D01*
X52987511Y-136337982D01*
X52987512Y-136337982D01*
X52987515Y-136337984D01*
X53127525Y-136375500D01*
X53127528Y-136375500D01*
X53272472Y-136375500D01*
X53272475Y-136375500D01*
X53412485Y-136337984D01*
X53525502Y-136272733D01*
X53593399Y-136256261D01*
X53649496Y-136272732D01*
X53762515Y-136337984D01*
X53902525Y-136375500D01*
X53902528Y-136375500D01*
X54047472Y-136375500D01*
X54047475Y-136375500D01*
X54187485Y-136337984D01*
X54313015Y-136265509D01*
X54415509Y-136163015D01*
X54487984Y-136037485D01*
X54525500Y-135897475D01*
X54525500Y-135752525D01*
X54487984Y-135612515D01*
X54415509Y-135486985D01*
X54313015Y-135384491D01*
X54313013Y-135384490D01*
X54313011Y-135384488D01*
X54187488Y-135312017D01*
X54187489Y-135312017D01*
X54176006Y-135308940D01*
X54047475Y-135274500D01*
X53902525Y-135274500D01*
X53773993Y-135308940D01*
X53762511Y-135312017D01*
X53649500Y-135377265D01*
X53581600Y-135393738D01*
X53525500Y-135377265D01*
X53412488Y-135312017D01*
X53412489Y-135312017D01*
X53401006Y-135308940D01*
X53272475Y-135274500D01*
X53127525Y-135274500D01*
X52998993Y-135308940D01*
X52987511Y-135312017D01*
X52861988Y-135384488D01*
X52861982Y-135384493D01*
X52759493Y-135486982D01*
X52759488Y-135486988D01*
X52687017Y-135612511D01*
X52687016Y-135612515D01*
X52649500Y-135752525D01*
X30200500Y-135752525D01*
X30200500Y-134827525D01*
X66099500Y-134827525D01*
X66099500Y-134972475D01*
X66137016Y-135112485D01*
X66137017Y-135112488D01*
X66209488Y-135238011D01*
X66209490Y-135238013D01*
X66209491Y-135238015D01*
X66311985Y-135340509D01*
X66311986Y-135340510D01*
X66311988Y-135340511D01*
X66437511Y-135412982D01*
X66437512Y-135412982D01*
X66437515Y-135412984D01*
X66577525Y-135450500D01*
X66577528Y-135450500D01*
X66722472Y-135450500D01*
X66722475Y-135450500D01*
X66862485Y-135412984D01*
X66988015Y-135340509D01*
X67090509Y-135238015D01*
X67162984Y-135112485D01*
X67200500Y-134972475D01*
X67200500Y-134827525D01*
X67162984Y-134687515D01*
X67090509Y-134561985D01*
X66988015Y-134459491D01*
X66988013Y-134459490D01*
X66988011Y-134459488D01*
X66862488Y-134387017D01*
X66862489Y-134387017D01*
X66851006Y-134383940D01*
X66722475Y-134349500D01*
X66577525Y-134349500D01*
X66448993Y-134383940D01*
X66437511Y-134387017D01*
X66311988Y-134459488D01*
X66311982Y-134459493D01*
X66209493Y-134561982D01*
X66209488Y-134561988D01*
X66137017Y-134687511D01*
X66137016Y-134687515D01*
X66099500Y-134827525D01*
X30200500Y-134827525D01*
X30200500Y-132877525D01*
X40924500Y-132877525D01*
X40924500Y-133022475D01*
X40956128Y-133140511D01*
X40962017Y-133162488D01*
X41034488Y-133288011D01*
X41034490Y-133288013D01*
X41034491Y-133288015D01*
X41136985Y-133390509D01*
X41136986Y-133390510D01*
X41136988Y-133390511D01*
X41262511Y-133462982D01*
X41262512Y-133462982D01*
X41262515Y-133462984D01*
X41402525Y-133500500D01*
X41402528Y-133500500D01*
X41547472Y-133500500D01*
X41547475Y-133500500D01*
X41687485Y-133462984D01*
X41813015Y-133390509D01*
X41915509Y-133288015D01*
X41987984Y-133162485D01*
X42025500Y-133022475D01*
X42025500Y-132877525D01*
X41987984Y-132737515D01*
X41924481Y-132627525D01*
X58774500Y-132627525D01*
X58774500Y-132772475D01*
X58802649Y-132877527D01*
X58812017Y-132912488D01*
X58884488Y-133038011D01*
X58884490Y-133038013D01*
X58884491Y-133038015D01*
X58986985Y-133140509D01*
X58986986Y-133140510D01*
X58986988Y-133140511D01*
X59112511Y-133212982D01*
X59112512Y-133212982D01*
X59112515Y-133212984D01*
X59252525Y-133250500D01*
X59252528Y-133250500D01*
X59397472Y-133250500D01*
X59397475Y-133250500D01*
X59537485Y-133212984D01*
X59663015Y-133140509D01*
X59765509Y-133038015D01*
X59837984Y-132912485D01*
X59875500Y-132772475D01*
X59875500Y-132627525D01*
X59837984Y-132487515D01*
X59809116Y-132437515D01*
X59765511Y-132361988D01*
X59765506Y-132361982D01*
X59663017Y-132259493D01*
X59663011Y-132259488D01*
X59537488Y-132187017D01*
X59537489Y-132187017D01*
X59524341Y-132183494D01*
X59502065Y-132177525D01*
X60999500Y-132177525D01*
X60999500Y-132322475D01*
X61037016Y-132462485D01*
X61037017Y-132462488D01*
X61109488Y-132588011D01*
X61109490Y-132588013D01*
X61109491Y-132588015D01*
X61211985Y-132690509D01*
X61211986Y-132690510D01*
X61211988Y-132690511D01*
X61337511Y-132762982D01*
X61337512Y-132762982D01*
X61337515Y-132762984D01*
X61477525Y-132800500D01*
X61477528Y-132800500D01*
X61622472Y-132800500D01*
X61622475Y-132800500D01*
X61762485Y-132762984D01*
X61888015Y-132690509D01*
X61888015Y-132690508D01*
X61895054Y-132686445D01*
X61895867Y-132687854D01*
X61952181Y-132666083D01*
X62020626Y-132680120D01*
X62035080Y-132689409D01*
X62036984Y-132690508D01*
X62036985Y-132690509D01*
X62075625Y-132712818D01*
X62162511Y-132762982D01*
X62162512Y-132762982D01*
X62162515Y-132762984D01*
X62302525Y-132800500D01*
X62302528Y-132800500D01*
X62447472Y-132800500D01*
X62447475Y-132800500D01*
X62587485Y-132762984D01*
X62713015Y-132690509D01*
X62815509Y-132588015D01*
X62821565Y-132577525D01*
X70849500Y-132577525D01*
X70849500Y-132722475D01*
X70862897Y-132772472D01*
X70887017Y-132862488D01*
X70959488Y-132988011D01*
X70959490Y-132988013D01*
X70959491Y-132988015D01*
X71061985Y-133090509D01*
X71061986Y-133090510D01*
X71061988Y-133090511D01*
X71187511Y-133162982D01*
X71187512Y-133162982D01*
X71187515Y-133162984D01*
X71327525Y-133200500D01*
X71327528Y-133200500D01*
X71472472Y-133200500D01*
X71472475Y-133200500D01*
X71612485Y-133162984D01*
X71738015Y-133090509D01*
X71840509Y-132988015D01*
X71912984Y-132862485D01*
X71950500Y-132722475D01*
X71950500Y-132577525D01*
X71912984Y-132437515D01*
X71912696Y-132437017D01*
X71840511Y-132311988D01*
X71840506Y-132311982D01*
X71738017Y-132209493D01*
X71738015Y-132209491D01*
X71612485Y-132137016D01*
X71472475Y-132099500D01*
X71327525Y-132099500D01*
X71198993Y-132133940D01*
X71187511Y-132137017D01*
X71061988Y-132209488D01*
X71061982Y-132209493D01*
X70959493Y-132311982D01*
X70959488Y-132311988D01*
X70887017Y-132437511D01*
X70887016Y-132437515D01*
X70849500Y-132577525D01*
X62821565Y-132577525D01*
X62887984Y-132462485D01*
X62925500Y-132322475D01*
X62925500Y-132177525D01*
X62900502Y-132084234D01*
X73099500Y-132084234D01*
X73099500Y-132235765D01*
X73138719Y-132382136D01*
X73170405Y-132437016D01*
X73214485Y-132513365D01*
X73321635Y-132620515D01*
X73452865Y-132696281D01*
X73599234Y-132735500D01*
X73599236Y-132735500D01*
X73750764Y-132735500D01*
X73750766Y-132735500D01*
X73897135Y-132696281D01*
X74028365Y-132620515D01*
X74135515Y-132513365D01*
X74211281Y-132382135D01*
X74250500Y-132235766D01*
X74250500Y-132084234D01*
X74211281Y-131937865D01*
X74135515Y-131806635D01*
X74028365Y-131699485D01*
X73962750Y-131661602D01*
X73897136Y-131623719D01*
X73823950Y-131604109D01*
X73750766Y-131584500D01*
X73599234Y-131584500D01*
X73452863Y-131623719D01*
X73321635Y-131699485D01*
X73321632Y-131699487D01*
X73214487Y-131806632D01*
X73214485Y-131806635D01*
X73138719Y-131937863D01*
X73099500Y-132084234D01*
X62900502Y-132084234D01*
X62887984Y-132037515D01*
X62815509Y-131911985D01*
X62713015Y-131809491D01*
X62713013Y-131809490D01*
X62713011Y-131809488D01*
X62587488Y-131737017D01*
X62587489Y-131737017D01*
X62576006Y-131733940D01*
X62447475Y-131699500D01*
X62302525Y-131699500D01*
X62173993Y-131733940D01*
X62162511Y-131737017D01*
X62029946Y-131813555D01*
X62029133Y-131812147D01*
X61972805Y-131833917D01*
X61904361Y-131819872D01*
X61889919Y-131810590D01*
X61762488Y-131737017D01*
X61762489Y-131737017D01*
X61751006Y-131733940D01*
X61622475Y-131699500D01*
X61477525Y-131699500D01*
X61348993Y-131733940D01*
X61337511Y-131737017D01*
X61211988Y-131809488D01*
X61211982Y-131809493D01*
X61109493Y-131911982D01*
X61109488Y-131911988D01*
X61037017Y-132037511D01*
X61037016Y-132037515D01*
X60999500Y-132177525D01*
X59502065Y-132177525D01*
X59397475Y-132149500D01*
X59252525Y-132149500D01*
X59125659Y-132183494D01*
X59112511Y-132187017D01*
X58986988Y-132259488D01*
X58986982Y-132259493D01*
X58884493Y-132361982D01*
X58884488Y-132361988D01*
X58812017Y-132487511D01*
X58812016Y-132487515D01*
X58774500Y-132627525D01*
X41924481Y-132627525D01*
X41915509Y-132611985D01*
X41813015Y-132509491D01*
X41813013Y-132509490D01*
X41813011Y-132509488D01*
X41687488Y-132437017D01*
X41687489Y-132437017D01*
X41676006Y-132433940D01*
X41547475Y-132399500D01*
X41402525Y-132399500D01*
X41273993Y-132433940D01*
X41262511Y-132437017D01*
X41136988Y-132509488D01*
X41136982Y-132509493D01*
X41034493Y-132611982D01*
X41034488Y-132611988D01*
X40962017Y-132737511D01*
X40962016Y-132737515D01*
X40924500Y-132877525D01*
X30200500Y-132877525D01*
X30200500Y-130727525D01*
X43249500Y-130727525D01*
X43249500Y-130872475D01*
X43287016Y-131012485D01*
X43287017Y-131012488D01*
X43359488Y-131138011D01*
X43359490Y-131138013D01*
X43359491Y-131138015D01*
X43461985Y-131240509D01*
X43461986Y-131240510D01*
X43461988Y-131240511D01*
X43587511Y-131312982D01*
X43587512Y-131312982D01*
X43587515Y-131312984D01*
X43727525Y-131350500D01*
X43727528Y-131350500D01*
X43872472Y-131350500D01*
X43872475Y-131350500D01*
X44012485Y-131312984D01*
X44138015Y-131240509D01*
X44240509Y-131138015D01*
X44312984Y-131012485D01*
X44350500Y-130872475D01*
X44350500Y-130727525D01*
X51374500Y-130727525D01*
X51374500Y-130872475D01*
X51412016Y-131012485D01*
X51412017Y-131012488D01*
X51484488Y-131138011D01*
X51484490Y-131138013D01*
X51484491Y-131138015D01*
X51586985Y-131240509D01*
X51586986Y-131240510D01*
X51586988Y-131240511D01*
X51712511Y-131312982D01*
X51712512Y-131312982D01*
X51712515Y-131312984D01*
X51852525Y-131350500D01*
X51852528Y-131350500D01*
X51997472Y-131350500D01*
X51997475Y-131350500D01*
X52137485Y-131312984D01*
X52263015Y-131240509D01*
X52365509Y-131138015D01*
X52437984Y-131012485D01*
X52475500Y-130872475D01*
X52475500Y-130727525D01*
X52456743Y-130657525D01*
X72074500Y-130657525D01*
X72074500Y-130802475D01*
X72093256Y-130872472D01*
X72112017Y-130942488D01*
X72184488Y-131068011D01*
X72184490Y-131068013D01*
X72184491Y-131068015D01*
X72286985Y-131170509D01*
X72286986Y-131170510D01*
X72286988Y-131170511D01*
X72412511Y-131242982D01*
X72412512Y-131242982D01*
X72412515Y-131242984D01*
X72552525Y-131280500D01*
X72552528Y-131280500D01*
X73797472Y-131280500D01*
X73797475Y-131280500D01*
X73937485Y-131242984D01*
X74063015Y-131170509D01*
X74165509Y-131068015D01*
X74237984Y-130942485D01*
X74275500Y-130802475D01*
X74275500Y-130657525D01*
X76404500Y-130657525D01*
X76404500Y-130802475D01*
X76423256Y-130872472D01*
X76442017Y-130942488D01*
X76514488Y-131068011D01*
X76514490Y-131068013D01*
X76514491Y-131068015D01*
X76616985Y-131170509D01*
X76616986Y-131170510D01*
X76616988Y-131170511D01*
X76742511Y-131242982D01*
X76742512Y-131242982D01*
X76742515Y-131242984D01*
X76882525Y-131280500D01*
X76882528Y-131280500D01*
X77827472Y-131280500D01*
X77827475Y-131280500D01*
X77967485Y-131242984D01*
X78093015Y-131170509D01*
X78195509Y-131068015D01*
X78267984Y-130942485D01*
X78305500Y-130802475D01*
X78305500Y-130657525D01*
X78267984Y-130517515D01*
X78235925Y-130461988D01*
X78195511Y-130391988D01*
X78195506Y-130391982D01*
X78093017Y-130289493D01*
X78093011Y-130289488D01*
X77967488Y-130217017D01*
X77967489Y-130217017D01*
X77956006Y-130213940D01*
X77827475Y-130179500D01*
X76882525Y-130179500D01*
X76753993Y-130213940D01*
X76742511Y-130217017D01*
X76616988Y-130289488D01*
X76616982Y-130289493D01*
X76514493Y-130391982D01*
X76514488Y-130391988D01*
X76442017Y-130517511D01*
X76442016Y-130517515D01*
X76404500Y-130657525D01*
X74275500Y-130657525D01*
X74237984Y-130517515D01*
X74205925Y-130461988D01*
X74165511Y-130391988D01*
X74165506Y-130391982D01*
X74063017Y-130289493D01*
X74063011Y-130289488D01*
X73937488Y-130217017D01*
X73937489Y-130217017D01*
X73926006Y-130213940D01*
X73797475Y-130179500D01*
X72552525Y-130179500D01*
X72423993Y-130213940D01*
X72412511Y-130217017D01*
X72286988Y-130289488D01*
X72286982Y-130289493D01*
X72184493Y-130391982D01*
X72184488Y-130391988D01*
X72112017Y-130517511D01*
X72112016Y-130517515D01*
X72074500Y-130657525D01*
X52456743Y-130657525D01*
X52437984Y-130587515D01*
X52397569Y-130517515D01*
X52365511Y-130461988D01*
X52365506Y-130461982D01*
X52263017Y-130359493D01*
X52263011Y-130359488D01*
X52137488Y-130287017D01*
X52137489Y-130287017D01*
X52126006Y-130283940D01*
X51997475Y-130249500D01*
X51852525Y-130249500D01*
X51723993Y-130283940D01*
X51712511Y-130287017D01*
X51586988Y-130359488D01*
X51586982Y-130359493D01*
X51484493Y-130461982D01*
X51484488Y-130461988D01*
X51412017Y-130587511D01*
X51412016Y-130587515D01*
X51374500Y-130727525D01*
X44350500Y-130727525D01*
X44312984Y-130587515D01*
X44272569Y-130517515D01*
X44240511Y-130461988D01*
X44240506Y-130461982D01*
X44138017Y-130359493D01*
X44138011Y-130359488D01*
X44012488Y-130287017D01*
X44012489Y-130287017D01*
X44001006Y-130283940D01*
X43872475Y-130249500D01*
X43727525Y-130249500D01*
X43598993Y-130283940D01*
X43587511Y-130287017D01*
X43461988Y-130359488D01*
X43461982Y-130359493D01*
X43359493Y-130461982D01*
X43359488Y-130461988D01*
X43287017Y-130587511D01*
X43287016Y-130587515D01*
X43249500Y-130727525D01*
X30200500Y-130727525D01*
X30200500Y-126027525D01*
X70274500Y-126027525D01*
X70274500Y-126172475D01*
X70302270Y-126276111D01*
X70312017Y-126312488D01*
X70384488Y-126438011D01*
X70384490Y-126438013D01*
X70384491Y-126438015D01*
X70486985Y-126540509D01*
X70486986Y-126540510D01*
X70486988Y-126540511D01*
X70612511Y-126612982D01*
X70612512Y-126612982D01*
X70612515Y-126612984D01*
X70752525Y-126650500D01*
X70752528Y-126650500D01*
X70897472Y-126650500D01*
X70897475Y-126650500D01*
X71037485Y-126612984D01*
X71163015Y-126540509D01*
X71265509Y-126438015D01*
X71331147Y-126324327D01*
X71381714Y-126276111D01*
X71450321Y-126262888D01*
X71515186Y-126288857D01*
X71544970Y-126328154D01*
X71547017Y-126326973D01*
X71623553Y-126459537D01*
X71623555Y-126459539D01*
X71623556Y-126459541D01*
X71726050Y-126562035D01*
X71726051Y-126562036D01*
X71726053Y-126562037D01*
X71851576Y-126634508D01*
X71851577Y-126634508D01*
X71851580Y-126634510D01*
X71991590Y-126672026D01*
X71991593Y-126672026D01*
X72136537Y-126672026D01*
X72136540Y-126672026D01*
X72276550Y-126634510D01*
X72402080Y-126562035D01*
X72480117Y-126483997D01*
X72541436Y-126450515D01*
X72611128Y-126455499D01*
X72655476Y-126484000D01*
X72711985Y-126540509D01*
X72711986Y-126540510D01*
X72711988Y-126540511D01*
X72837511Y-126612982D01*
X72837512Y-126612982D01*
X72837515Y-126612984D01*
X72977525Y-126650500D01*
X72977528Y-126650500D01*
X73122472Y-126650500D01*
X73122475Y-126650500D01*
X73262485Y-126612984D01*
X73388015Y-126540509D01*
X73490509Y-126438015D01*
X73562984Y-126312485D01*
X73600500Y-126172475D01*
X73600500Y-126027525D01*
X73562984Y-125887515D01*
X73549181Y-125863608D01*
X73490511Y-125761988D01*
X73490506Y-125761982D01*
X73388017Y-125659493D01*
X73388011Y-125659488D01*
X73262488Y-125587017D01*
X73262489Y-125587017D01*
X73251006Y-125583940D01*
X73122475Y-125549500D01*
X72977525Y-125549500D01*
X72848993Y-125583940D01*
X72837511Y-125587017D01*
X72711988Y-125659488D01*
X72633950Y-125737526D01*
X72572626Y-125771010D01*
X72502935Y-125766026D01*
X72458588Y-125737525D01*
X72402082Y-125681019D01*
X72402076Y-125681014D01*
X72276553Y-125608543D01*
X72276554Y-125608543D01*
X72265071Y-125605466D01*
X72136540Y-125571026D01*
X71991590Y-125571026D01*
X71863058Y-125605466D01*
X71851576Y-125608543D01*
X71726053Y-125681014D01*
X71726047Y-125681019D01*
X71623558Y-125783508D01*
X71623552Y-125783517D01*
X71557916Y-125897199D01*
X71507349Y-125945414D01*
X71438742Y-125958636D01*
X71373877Y-125932668D01*
X71344098Y-125893369D01*
X71342048Y-125894553D01*
X71265511Y-125761988D01*
X71265506Y-125761982D01*
X71163017Y-125659493D01*
X71163011Y-125659488D01*
X71037488Y-125587017D01*
X71037489Y-125587017D01*
X71026006Y-125583940D01*
X70897475Y-125549500D01*
X70752525Y-125549500D01*
X70623993Y-125583940D01*
X70612511Y-125587017D01*
X70486988Y-125659488D01*
X70486982Y-125659493D01*
X70384493Y-125761982D01*
X70384488Y-125761988D01*
X70312017Y-125887511D01*
X70312016Y-125887515D01*
X70274500Y-126027525D01*
X30200500Y-126027525D01*
X30200500Y-124877525D01*
X52499499Y-124877525D01*
X52499499Y-125022475D01*
X52537015Y-125162485D01*
X52537016Y-125162488D01*
X52609487Y-125288011D01*
X52609489Y-125288013D01*
X52609490Y-125288015D01*
X52711984Y-125390509D01*
X52711985Y-125390510D01*
X52711987Y-125390511D01*
X52837510Y-125462982D01*
X52837511Y-125462982D01*
X52837514Y-125462984D01*
X52977524Y-125500500D01*
X52977527Y-125500500D01*
X53122471Y-125500500D01*
X53122474Y-125500500D01*
X53262484Y-125462984D01*
X53388014Y-125390509D01*
X53490508Y-125288015D01*
X53562983Y-125162485D01*
X53600499Y-125022475D01*
X53600499Y-124877525D01*
X53849500Y-124877525D01*
X53849500Y-125022475D01*
X53887016Y-125162485D01*
X53887017Y-125162488D01*
X53959488Y-125288011D01*
X53959490Y-125288013D01*
X53959491Y-125288015D01*
X54061985Y-125390509D01*
X54061986Y-125390510D01*
X54061988Y-125390511D01*
X54187511Y-125462982D01*
X54187512Y-125462982D01*
X54187515Y-125462984D01*
X54327525Y-125500500D01*
X54327528Y-125500500D01*
X54472472Y-125500500D01*
X54472475Y-125500500D01*
X54612485Y-125462984D01*
X54738015Y-125390509D01*
X54840509Y-125288015D01*
X54912984Y-125162485D01*
X54950500Y-125022475D01*
X54950500Y-124877525D01*
X54937102Y-124827525D01*
X55449499Y-124827525D01*
X55449499Y-124972475D01*
X55483170Y-125098136D01*
X55487016Y-125112488D01*
X55559487Y-125238011D01*
X55559489Y-125238013D01*
X55559490Y-125238015D01*
X55661984Y-125340509D01*
X55661985Y-125340510D01*
X55661987Y-125340511D01*
X55787510Y-125412982D01*
X55787511Y-125412982D01*
X55787514Y-125412984D01*
X55927524Y-125450500D01*
X55927527Y-125450500D01*
X56072471Y-125450500D01*
X56072474Y-125450500D01*
X56212484Y-125412984D01*
X56338014Y-125340509D01*
X56440508Y-125238015D01*
X56512983Y-125112485D01*
X56516827Y-125098138D01*
X56553188Y-125038480D01*
X56616033Y-125007949D01*
X56685409Y-125016241D01*
X56739289Y-125060724D01*
X56756376Y-125098136D01*
X56787017Y-125212489D01*
X56859488Y-125338011D01*
X56859490Y-125338013D01*
X56859491Y-125338015D01*
X56961985Y-125440509D01*
X56961986Y-125440510D01*
X56961988Y-125440511D01*
X57087511Y-125512982D01*
X57087512Y-125512982D01*
X57087515Y-125512984D01*
X57227525Y-125550500D01*
X57227528Y-125550500D01*
X57372472Y-125550500D01*
X57372475Y-125550500D01*
X57512485Y-125512984D01*
X57638015Y-125440509D01*
X57740509Y-125338015D01*
X57764475Y-125296503D01*
X57815040Y-125248290D01*
X57883646Y-125235066D01*
X57948512Y-125261033D01*
X57982411Y-125305759D01*
X57982952Y-125305447D01*
X57985437Y-125309752D01*
X57986422Y-125311051D01*
X57987017Y-125312488D01*
X58059488Y-125438011D01*
X58059490Y-125438013D01*
X58059491Y-125438015D01*
X58161985Y-125540509D01*
X58161986Y-125540510D01*
X58161988Y-125540511D01*
X58287511Y-125612982D01*
X58287512Y-125612982D01*
X58287515Y-125612984D01*
X58427525Y-125650500D01*
X58427528Y-125650500D01*
X58572472Y-125650500D01*
X58572475Y-125650500D01*
X58712485Y-125612984D01*
X58838015Y-125540509D01*
X58940509Y-125438015D01*
X59012984Y-125312485D01*
X59050500Y-125172475D01*
X59050500Y-125027525D01*
X59499500Y-125027525D01*
X59499500Y-125172475D01*
X59535130Y-125305447D01*
X59537017Y-125312488D01*
X59609488Y-125438011D01*
X59609490Y-125438013D01*
X59609491Y-125438015D01*
X59711985Y-125540509D01*
X59711986Y-125540510D01*
X59711988Y-125540511D01*
X59837511Y-125612982D01*
X59837512Y-125612982D01*
X59837515Y-125612984D01*
X59977525Y-125650500D01*
X59977528Y-125650500D01*
X60122472Y-125650500D01*
X60122475Y-125650500D01*
X60262485Y-125612984D01*
X60388015Y-125540509D01*
X60490509Y-125438015D01*
X60562984Y-125312485D01*
X60600500Y-125172475D01*
X60600500Y-125027525D01*
X60562984Y-124887515D01*
X60557217Y-124877527D01*
X60490511Y-124761988D01*
X60490506Y-124761982D01*
X60388017Y-124659493D01*
X60388011Y-124659488D01*
X60262488Y-124587017D01*
X60262489Y-124587017D01*
X60251006Y-124583940D01*
X60122475Y-124549500D01*
X59977525Y-124549500D01*
X59848993Y-124583940D01*
X59837511Y-124587017D01*
X59711988Y-124659488D01*
X59711982Y-124659493D01*
X59609493Y-124761982D01*
X59609488Y-124761988D01*
X59537017Y-124887511D01*
X59537016Y-124887515D01*
X59499500Y-125027525D01*
X59050500Y-125027525D01*
X59012984Y-124887515D01*
X59007217Y-124877527D01*
X58940511Y-124761988D01*
X58940506Y-124761982D01*
X58838017Y-124659493D01*
X58838011Y-124659488D01*
X58712488Y-124587017D01*
X58712489Y-124587017D01*
X58701006Y-124583940D01*
X58572475Y-124549500D01*
X58427525Y-124549500D01*
X58298993Y-124583940D01*
X58287511Y-124587017D01*
X58161988Y-124659488D01*
X58161982Y-124659493D01*
X58059493Y-124761982D01*
X58059486Y-124761991D01*
X58035524Y-124803495D01*
X57984957Y-124851710D01*
X57916350Y-124864932D01*
X57851485Y-124838964D01*
X57817590Y-124794239D01*
X57817048Y-124794553D01*
X57814552Y-124790231D01*
X57813575Y-124788941D01*
X57812984Y-124787514D01*
X57740511Y-124661988D01*
X57740506Y-124661982D01*
X57638017Y-124559493D01*
X57638011Y-124559488D01*
X57512488Y-124487017D01*
X57512489Y-124487017D01*
X57501006Y-124483940D01*
X57372475Y-124449500D01*
X57227525Y-124449500D01*
X57098993Y-124483940D01*
X57087511Y-124487017D01*
X56961988Y-124559488D01*
X56961982Y-124559493D01*
X56859493Y-124661982D01*
X56859488Y-124661988D01*
X56787017Y-124787511D01*
X56787015Y-124787516D01*
X56783171Y-124801863D01*
X56746806Y-124861523D01*
X56683958Y-124892051D01*
X56614583Y-124883756D01*
X56560706Y-124839270D01*
X56543623Y-124801864D01*
X56512983Y-124687515D01*
X56498243Y-124661985D01*
X56440510Y-124561988D01*
X56440505Y-124561982D01*
X56338016Y-124459493D01*
X56338010Y-124459488D01*
X56212487Y-124387017D01*
X56212488Y-124387017D01*
X56201005Y-124383940D01*
X56072474Y-124349500D01*
X55927524Y-124349500D01*
X55798992Y-124383940D01*
X55787510Y-124387017D01*
X55661987Y-124459488D01*
X55661981Y-124459493D01*
X55559492Y-124561982D01*
X55559487Y-124561988D01*
X55487016Y-124687511D01*
X55487015Y-124687515D01*
X55449499Y-124827525D01*
X54937102Y-124827525D01*
X54912984Y-124737515D01*
X54884116Y-124687515D01*
X54840511Y-124611988D01*
X54840506Y-124611982D01*
X54738017Y-124509493D01*
X54738011Y-124509488D01*
X54612488Y-124437017D01*
X54612489Y-124437017D01*
X54601006Y-124433940D01*
X54472475Y-124399500D01*
X54327525Y-124399500D01*
X54198993Y-124433940D01*
X54187511Y-124437017D01*
X54061988Y-124509488D01*
X54061982Y-124509493D01*
X53959493Y-124611982D01*
X53959488Y-124611988D01*
X53887017Y-124737511D01*
X53887016Y-124737515D01*
X53849500Y-124877525D01*
X53600499Y-124877525D01*
X53562983Y-124737515D01*
X53534115Y-124687515D01*
X53490510Y-124611988D01*
X53490505Y-124611982D01*
X53388016Y-124509493D01*
X53388010Y-124509488D01*
X53262487Y-124437017D01*
X53262488Y-124437017D01*
X53251005Y-124433940D01*
X53122474Y-124399500D01*
X52977524Y-124399500D01*
X52848992Y-124433940D01*
X52837510Y-124437017D01*
X52711987Y-124509488D01*
X52711981Y-124509493D01*
X52609492Y-124611982D01*
X52609487Y-124611988D01*
X52537016Y-124737511D01*
X52537015Y-124737515D01*
X52499499Y-124877525D01*
X30200500Y-124877525D01*
X30200500Y-123877525D01*
X43749500Y-123877525D01*
X43749500Y-124022475D01*
X43762897Y-124072472D01*
X43787017Y-124162488D01*
X43859488Y-124288011D01*
X43859490Y-124288013D01*
X43859491Y-124288015D01*
X43961985Y-124390509D01*
X43961986Y-124390510D01*
X43961988Y-124390511D01*
X44087511Y-124462982D01*
X44087512Y-124462982D01*
X44087515Y-124462984D01*
X44227525Y-124500500D01*
X44227528Y-124500500D01*
X44372472Y-124500500D01*
X44372475Y-124500500D01*
X44512485Y-124462984D01*
X44638015Y-124390509D01*
X44740509Y-124288015D01*
X44812984Y-124162485D01*
X44850500Y-124022475D01*
X44850500Y-123877525D01*
X44812984Y-123737515D01*
X44769378Y-123661988D01*
X44740511Y-123611988D01*
X44740506Y-123611982D01*
X44638017Y-123509493D01*
X44638011Y-123509488D01*
X44512488Y-123437017D01*
X44512489Y-123437017D01*
X44492519Y-123431666D01*
X44372475Y-123399500D01*
X44227525Y-123399500D01*
X44107481Y-123431666D01*
X44087511Y-123437017D01*
X43961988Y-123509488D01*
X43961982Y-123509493D01*
X43859493Y-123611982D01*
X43859488Y-123611988D01*
X43787017Y-123737511D01*
X43787016Y-123737515D01*
X43749500Y-123877525D01*
X30200500Y-123877525D01*
X30200500Y-122227525D01*
X46399500Y-122227525D01*
X46399500Y-122372475D01*
X46436214Y-122509491D01*
X46437017Y-122512488D01*
X46480615Y-122588001D01*
X46497088Y-122655901D01*
X46480615Y-122712001D01*
X46437017Y-122787514D01*
X46437016Y-122787518D01*
X46399500Y-122927528D01*
X46399500Y-123072478D01*
X46437016Y-123212488D01*
X46437017Y-123212491D01*
X46509488Y-123338014D01*
X46509490Y-123338016D01*
X46509491Y-123338018D01*
X46611985Y-123440512D01*
X46611986Y-123440513D01*
X46611988Y-123440514D01*
X46737511Y-123512985D01*
X46737512Y-123512985D01*
X46737515Y-123512987D01*
X46877525Y-123550503D01*
X46877528Y-123550503D01*
X47022472Y-123550503D01*
X47022475Y-123550503D01*
X47162485Y-123512987D01*
X47288015Y-123440512D01*
X47390509Y-123338018D01*
X47462984Y-123212488D01*
X47500500Y-123072478D01*
X47500500Y-122927528D01*
X47462984Y-122787518D01*
X47419383Y-122711999D01*
X47402911Y-122644102D01*
X47419385Y-122588000D01*
X47462981Y-122512490D01*
X47462982Y-122512489D01*
X47462982Y-122512487D01*
X47462984Y-122512485D01*
X47500500Y-122372475D01*
X47500500Y-122227525D01*
X47462984Y-122087515D01*
X47390509Y-121961985D01*
X47381049Y-121952525D01*
X50049500Y-121952525D01*
X50049500Y-122097475D01*
X50084347Y-122227525D01*
X50087017Y-122237488D01*
X50159488Y-122363011D01*
X50159493Y-122363017D01*
X50196295Y-122399819D01*
X50229780Y-122461142D01*
X50224796Y-122530834D01*
X50196295Y-122575181D01*
X50159493Y-122611982D01*
X50159488Y-122611988D01*
X50087017Y-122737511D01*
X50087016Y-122737515D01*
X50049500Y-122877525D01*
X50049500Y-123022475D01*
X50087016Y-123162485D01*
X50087017Y-123162488D01*
X50159488Y-123288011D01*
X50159493Y-123288017D01*
X50258795Y-123387319D01*
X50292280Y-123448642D01*
X50287296Y-123518334D01*
X50258795Y-123562681D01*
X50159493Y-123661982D01*
X50159488Y-123661988D01*
X50087017Y-123787511D01*
X50087016Y-123787515D01*
X50049500Y-123927525D01*
X50049500Y-124072475D01*
X50087016Y-124212485D01*
X50087017Y-124212488D01*
X50159488Y-124338011D01*
X50159490Y-124338013D01*
X50159491Y-124338015D01*
X50261985Y-124440509D01*
X50261986Y-124440510D01*
X50261988Y-124440511D01*
X50387511Y-124512982D01*
X50387512Y-124512982D01*
X50387515Y-124512984D01*
X50527525Y-124550500D01*
X50527528Y-124550500D01*
X50672472Y-124550500D01*
X50672475Y-124550500D01*
X50812485Y-124512984D01*
X50938015Y-124440509D01*
X51040509Y-124338015D01*
X51112984Y-124212485D01*
X51150500Y-124072475D01*
X51150500Y-123927525D01*
X51112984Y-123787515D01*
X51084116Y-123737515D01*
X51040511Y-123661988D01*
X51040506Y-123661982D01*
X50941205Y-123562681D01*
X50907720Y-123501358D01*
X50912704Y-123431666D01*
X50941205Y-123387319D01*
X50990510Y-123338014D01*
X51040509Y-123288015D01*
X51112984Y-123162485D01*
X51150500Y-123022475D01*
X51150500Y-122877525D01*
X51112984Y-122737515D01*
X51098253Y-122712001D01*
X51040511Y-122611988D01*
X51040506Y-122611982D01*
X51003705Y-122575181D01*
X50970220Y-122513858D01*
X50975204Y-122444166D01*
X51003705Y-122399819D01*
X51040509Y-122363015D01*
X51112984Y-122237485D01*
X51150500Y-122097475D01*
X51150500Y-121952525D01*
X51112984Y-121812515D01*
X51040509Y-121686985D01*
X50938015Y-121584491D01*
X50938013Y-121584490D01*
X50938011Y-121584488D01*
X50812488Y-121512017D01*
X50812489Y-121512017D01*
X50801006Y-121508940D01*
X50672475Y-121474500D01*
X50527525Y-121474500D01*
X50398993Y-121508940D01*
X50387511Y-121512017D01*
X50261988Y-121584488D01*
X50261982Y-121584493D01*
X50159493Y-121686982D01*
X50159488Y-121686988D01*
X50087017Y-121812511D01*
X50087016Y-121812515D01*
X50049500Y-121952525D01*
X47381049Y-121952525D01*
X47288015Y-121859491D01*
X47288013Y-121859490D01*
X47288011Y-121859488D01*
X47162488Y-121787017D01*
X47162489Y-121787017D01*
X47151006Y-121783940D01*
X47022475Y-121749500D01*
X46877525Y-121749500D01*
X46748993Y-121783940D01*
X46737511Y-121787017D01*
X46611988Y-121859488D01*
X46611982Y-121859493D01*
X46509493Y-121961982D01*
X46509488Y-121961988D01*
X46437017Y-122087511D01*
X46437016Y-122087515D01*
X46399500Y-122227525D01*
X30200500Y-122227525D01*
X30200500Y-119727525D01*
X54499500Y-119727525D01*
X54499500Y-119872475D01*
X54537016Y-120012485D01*
X54537017Y-120012488D01*
X54609488Y-120138011D01*
X54609490Y-120138013D01*
X54609491Y-120138015D01*
X54711985Y-120240509D01*
X54711986Y-120240510D01*
X54711988Y-120240511D01*
X54837511Y-120312982D01*
X54837512Y-120312982D01*
X54837515Y-120312984D01*
X54977525Y-120350500D01*
X54977528Y-120350500D01*
X55122472Y-120350500D01*
X55122475Y-120350500D01*
X55262485Y-120312984D01*
X55388015Y-120240509D01*
X55490509Y-120138015D01*
X55562984Y-120012485D01*
X55600500Y-119872475D01*
X55600500Y-119727525D01*
X55562984Y-119587515D01*
X55490509Y-119461985D01*
X55388015Y-119359491D01*
X55388013Y-119359490D01*
X55388011Y-119359488D01*
X55262488Y-119287017D01*
X55262489Y-119287017D01*
X55251006Y-119283940D01*
X55122475Y-119249500D01*
X54977525Y-119249500D01*
X54848993Y-119283940D01*
X54837511Y-119287017D01*
X54711988Y-119359488D01*
X54711982Y-119359493D01*
X54609493Y-119461982D01*
X54609488Y-119461988D01*
X54537017Y-119587511D01*
X54537016Y-119587515D01*
X54499500Y-119727525D01*
X30200500Y-119727525D01*
X30200500Y-118152525D01*
X46274500Y-118152525D01*
X46274500Y-118297475D01*
X46312016Y-118437485D01*
X46312017Y-118437488D01*
X46384488Y-118563011D01*
X46384490Y-118563013D01*
X46384491Y-118563015D01*
X46486985Y-118665509D01*
X46486986Y-118665510D01*
X46486988Y-118665511D01*
X46612511Y-118737982D01*
X46612512Y-118737982D01*
X46612515Y-118737984D01*
X46752525Y-118775500D01*
X46752528Y-118775500D01*
X46897472Y-118775500D01*
X46897475Y-118775500D01*
X47037485Y-118737984D01*
X47163015Y-118665509D01*
X47265509Y-118563015D01*
X47337984Y-118437485D01*
X47375500Y-118297475D01*
X47375500Y-118152525D01*
X47337984Y-118012515D01*
X47265509Y-117886985D01*
X47163015Y-117784491D01*
X47163013Y-117784490D01*
X47163011Y-117784488D01*
X47037488Y-117712017D01*
X47037489Y-117712017D01*
X47026006Y-117708940D01*
X46897475Y-117674500D01*
X46752525Y-117674500D01*
X46623993Y-117708940D01*
X46612511Y-117712017D01*
X46486988Y-117784488D01*
X46486982Y-117784493D01*
X46384493Y-117886982D01*
X46384488Y-117886988D01*
X46312017Y-118012511D01*
X46312016Y-118012515D01*
X46274500Y-118152525D01*
X30200500Y-118152525D01*
X30200500Y-116927525D01*
X53549500Y-116927525D01*
X53549500Y-117072475D01*
X53587016Y-117212485D01*
X53587017Y-117212488D01*
X53659488Y-117338011D01*
X53659490Y-117338013D01*
X53659491Y-117338015D01*
X53761985Y-117440509D01*
X53761986Y-117440510D01*
X53761988Y-117440511D01*
X53887511Y-117512982D01*
X53887512Y-117512982D01*
X53887515Y-117512984D01*
X54027525Y-117550500D01*
X54027528Y-117550500D01*
X54172472Y-117550500D01*
X54172475Y-117550500D01*
X54312485Y-117512984D01*
X54438015Y-117440509D01*
X54540509Y-117338015D01*
X54612984Y-117212485D01*
X54650500Y-117072475D01*
X54650500Y-116927525D01*
X54612984Y-116787515D01*
X54585843Y-116740506D01*
X54540511Y-116661988D01*
X54540506Y-116661982D01*
X54438017Y-116559493D01*
X54438011Y-116559488D01*
X54312488Y-116487017D01*
X54312489Y-116487017D01*
X54301006Y-116483940D01*
X54172475Y-116449500D01*
X54027525Y-116449500D01*
X53898993Y-116483940D01*
X53887511Y-116487017D01*
X53761988Y-116559488D01*
X53761982Y-116559493D01*
X53659493Y-116661982D01*
X53659488Y-116661988D01*
X53587017Y-116787511D01*
X53587016Y-116787515D01*
X53549500Y-116927525D01*
X30200500Y-116927525D01*
X30200500Y-115002706D01*
X30200618Y-114997297D01*
X30205796Y-114878711D01*
X33149500Y-114878711D01*
X33149500Y-115121288D01*
X33181161Y-115361785D01*
X33243947Y-115596104D01*
X33307486Y-115749500D01*
X33336776Y-115820212D01*
X33458064Y-116030289D01*
X33458066Y-116030292D01*
X33458067Y-116030293D01*
X33605733Y-116222736D01*
X33605739Y-116222743D01*
X33777256Y-116394260D01*
X33777262Y-116394265D01*
X33969711Y-116541936D01*
X34179788Y-116663224D01*
X34403900Y-116756054D01*
X34638211Y-116818838D01*
X34818586Y-116842584D01*
X34878711Y-116850500D01*
X34878712Y-116850500D01*
X35121289Y-116850500D01*
X35169388Y-116844167D01*
X35361789Y-116818838D01*
X35596100Y-116756054D01*
X35820212Y-116663224D01*
X36030289Y-116541936D01*
X36222738Y-116394265D01*
X36389478Y-116227525D01*
X59499500Y-116227525D01*
X59499500Y-116372475D01*
X59520139Y-116449500D01*
X59537017Y-116512488D01*
X59609488Y-116638011D01*
X59609490Y-116638013D01*
X59609491Y-116638015D01*
X59711985Y-116740509D01*
X59711986Y-116740510D01*
X59711988Y-116740511D01*
X59837511Y-116812982D01*
X59837512Y-116812982D01*
X59837515Y-116812984D01*
X59977525Y-116850500D01*
X59977528Y-116850500D01*
X60122472Y-116850500D01*
X60122475Y-116850500D01*
X60262485Y-116812984D01*
X60388015Y-116740509D01*
X60490509Y-116638015D01*
X60562984Y-116512485D01*
X60600500Y-116372475D01*
X60600500Y-116227525D01*
X60562984Y-116087515D01*
X60529944Y-116030289D01*
X60490511Y-115961988D01*
X60490506Y-115961982D01*
X60388017Y-115859493D01*
X60388011Y-115859488D01*
X60262488Y-115787017D01*
X60262489Y-115787017D01*
X60251006Y-115783940D01*
X60122475Y-115749500D01*
X59977525Y-115749500D01*
X59848993Y-115783940D01*
X59837511Y-115787017D01*
X59711988Y-115859488D01*
X59711982Y-115859493D01*
X59609493Y-115961982D01*
X59609488Y-115961988D01*
X59537017Y-116087511D01*
X59537016Y-116087515D01*
X59499500Y-116227525D01*
X36389478Y-116227525D01*
X36394265Y-116222738D01*
X36541936Y-116030289D01*
X36663224Y-115820212D01*
X36756054Y-115596100D01*
X36818838Y-115361789D01*
X36850500Y-115121288D01*
X36850500Y-114927525D01*
X61144501Y-114927525D01*
X61144501Y-115072475D01*
X61157581Y-115121288D01*
X61182018Y-115212488D01*
X61254489Y-115338011D01*
X61254491Y-115338013D01*
X61254492Y-115338015D01*
X61356986Y-115440509D01*
X61356987Y-115440510D01*
X61356989Y-115440511D01*
X61482512Y-115512982D01*
X61482513Y-115512982D01*
X61482516Y-115512984D01*
X61622526Y-115550500D01*
X61622529Y-115550500D01*
X61767473Y-115550500D01*
X61767476Y-115550500D01*
X61907486Y-115512984D01*
X62033016Y-115440509D01*
X62135510Y-115338015D01*
X62207985Y-115212485D01*
X62245501Y-115072475D01*
X62245501Y-114927525D01*
X62232421Y-114878711D01*
X73149500Y-114878711D01*
X73149500Y-115121288D01*
X73181161Y-115361785D01*
X73243947Y-115596104D01*
X73307486Y-115749500D01*
X73336776Y-115820212D01*
X73458064Y-116030289D01*
X73458066Y-116030292D01*
X73458067Y-116030293D01*
X73605733Y-116222736D01*
X73605739Y-116222743D01*
X73777256Y-116394260D01*
X73777262Y-116394265D01*
X73969711Y-116541936D01*
X74179788Y-116663224D01*
X74403900Y-116756054D01*
X74638211Y-116818838D01*
X74818586Y-116842584D01*
X74878711Y-116850500D01*
X74878712Y-116850500D01*
X75121289Y-116850500D01*
X75169388Y-116844167D01*
X75361789Y-116818838D01*
X75596100Y-116756054D01*
X75820212Y-116663224D01*
X76030289Y-116541936D01*
X76222738Y-116394265D01*
X76394265Y-116222738D01*
X76541936Y-116030289D01*
X76663224Y-115820212D01*
X76756054Y-115596100D01*
X76818838Y-115361789D01*
X76850500Y-115121288D01*
X76850500Y-114878712D01*
X76818838Y-114638211D01*
X76756054Y-114403900D01*
X76663224Y-114179788D01*
X76541936Y-113969711D01*
X76394265Y-113777262D01*
X76394260Y-113777256D01*
X76222743Y-113605739D01*
X76222736Y-113605733D01*
X76030293Y-113458067D01*
X76030292Y-113458066D01*
X76030289Y-113458064D01*
X75820212Y-113336776D01*
X75820205Y-113336773D01*
X75596104Y-113243947D01*
X75361785Y-113181161D01*
X75121289Y-113149500D01*
X75121288Y-113149500D01*
X74878712Y-113149500D01*
X74878711Y-113149500D01*
X74638214Y-113181161D01*
X74403895Y-113243947D01*
X74179794Y-113336773D01*
X74179785Y-113336777D01*
X73969706Y-113458067D01*
X73777263Y-113605733D01*
X73777256Y-113605739D01*
X73605739Y-113777256D01*
X73605733Y-113777263D01*
X73458067Y-113969706D01*
X73336777Y-114179785D01*
X73336773Y-114179794D01*
X73243947Y-114403895D01*
X73181161Y-114638214D01*
X73149500Y-114878711D01*
X62232421Y-114878711D01*
X62207985Y-114787515D01*
X62135510Y-114661985D01*
X62033016Y-114559491D01*
X62033014Y-114559490D01*
X62033012Y-114559488D01*
X61907489Y-114487017D01*
X61907490Y-114487017D01*
X61896007Y-114483940D01*
X61767476Y-114449500D01*
X61622526Y-114449500D01*
X61493994Y-114483940D01*
X61482512Y-114487017D01*
X61356989Y-114559488D01*
X61356983Y-114559493D01*
X61254494Y-114661982D01*
X61254489Y-114661988D01*
X61182018Y-114787511D01*
X61182017Y-114787515D01*
X61144501Y-114927525D01*
X36850500Y-114927525D01*
X36850500Y-114878712D01*
X36818838Y-114638211D01*
X36756054Y-114403900D01*
X36663224Y-114179788D01*
X36541936Y-113969711D01*
X36394265Y-113777262D01*
X36394260Y-113777256D01*
X36222743Y-113605739D01*
X36222736Y-113605733D01*
X36030293Y-113458067D01*
X36030292Y-113458066D01*
X36030289Y-113458064D01*
X35820212Y-113336776D01*
X35820205Y-113336773D01*
X35596104Y-113243947D01*
X35361785Y-113181161D01*
X35121289Y-113149500D01*
X35121288Y-113149500D01*
X34878712Y-113149500D01*
X34878711Y-113149500D01*
X34638214Y-113181161D01*
X34403895Y-113243947D01*
X34179794Y-113336773D01*
X34179785Y-113336777D01*
X33969706Y-113458067D01*
X33777263Y-113605733D01*
X33777256Y-113605739D01*
X33605739Y-113777256D01*
X33605733Y-113777263D01*
X33458067Y-113969706D01*
X33336777Y-114179785D01*
X33336773Y-114179794D01*
X33243947Y-114403895D01*
X33181161Y-114638214D01*
X33149500Y-114878711D01*
X30205796Y-114878711D01*
X30206209Y-114869244D01*
X30218528Y-114587080D01*
X30219468Y-114576347D01*
X30272709Y-114171938D01*
X30274582Y-114161308D01*
X30362870Y-113763068D01*
X30365668Y-113752630D01*
X30488319Y-113363629D01*
X30492016Y-113353473D01*
X30498932Y-113336777D01*
X30648111Y-112976627D01*
X30652669Y-112966853D01*
X30841025Y-112605024D01*
X30846407Y-112595703D01*
X31065574Y-112251680D01*
X31071765Y-112242837D01*
X31320083Y-111919224D01*
X31327021Y-111910955D01*
X31602594Y-111610220D01*
X31610220Y-111602594D01*
X31910955Y-111327021D01*
X31919224Y-111320083D01*
X32173042Y-111125321D01*
X39179500Y-111125321D01*
X39179500Y-112874678D01*
X39194032Y-112947735D01*
X39194033Y-112947739D01*
X39194034Y-112947740D01*
X39249399Y-113030601D01*
X39332260Y-113085966D01*
X39332264Y-113085967D01*
X39405321Y-113100499D01*
X39405324Y-113100500D01*
X39405326Y-113100500D01*
X41154676Y-113100500D01*
X41154677Y-113100499D01*
X41227740Y-113085966D01*
X41310601Y-113030601D01*
X41365966Y-112947740D01*
X41380500Y-112874674D01*
X41380500Y-111913389D01*
X41719500Y-111913389D01*
X41719500Y-112086611D01*
X41719723Y-112088017D01*
X41744242Y-112242829D01*
X41746598Y-112257701D01*
X41800127Y-112422445D01*
X41878768Y-112576788D01*
X41980586Y-112716928D01*
X42103072Y-112839414D01*
X42243212Y-112941232D01*
X42397555Y-113019873D01*
X42562299Y-113073402D01*
X42733389Y-113100500D01*
X42733390Y-113100500D01*
X42906610Y-113100500D01*
X42906611Y-113100500D01*
X43077701Y-113073402D01*
X43242445Y-113019873D01*
X43396788Y-112941232D01*
X43536928Y-112839414D01*
X43659414Y-112716928D01*
X43761232Y-112576788D01*
X43839873Y-112422445D01*
X43893402Y-112257701D01*
X43920500Y-112086611D01*
X43920500Y-111913389D01*
X44259500Y-111913389D01*
X44259500Y-112086611D01*
X44259723Y-112088017D01*
X44284242Y-112242829D01*
X44286598Y-112257701D01*
X44340127Y-112422445D01*
X44418768Y-112576788D01*
X44520586Y-112716928D01*
X44643072Y-112839414D01*
X44783212Y-112941232D01*
X44937555Y-113019873D01*
X45102299Y-113073402D01*
X45273389Y-113100500D01*
X45273390Y-113100500D01*
X45446610Y-113100500D01*
X45446611Y-113100500D01*
X45617701Y-113073402D01*
X45782445Y-113019873D01*
X45936788Y-112941232D01*
X46076928Y-112839414D01*
X46199414Y-112716928D01*
X46301232Y-112576788D01*
X46379873Y-112422445D01*
X46433402Y-112257701D01*
X46460500Y-112086611D01*
X46460500Y-111913389D01*
X46799500Y-111913389D01*
X46799500Y-112086611D01*
X46799723Y-112088017D01*
X46824242Y-112242829D01*
X46826598Y-112257701D01*
X46880127Y-112422445D01*
X46958768Y-112576788D01*
X47060586Y-112716928D01*
X47183072Y-112839414D01*
X47323212Y-112941232D01*
X47477555Y-113019873D01*
X47642299Y-113073402D01*
X47813389Y-113100500D01*
X47813390Y-113100500D01*
X47986610Y-113100500D01*
X47986611Y-113100500D01*
X48157701Y-113073402D01*
X48322445Y-113019873D01*
X48476788Y-112941232D01*
X48616928Y-112839414D01*
X48739414Y-112716928D01*
X48841232Y-112576788D01*
X48919873Y-112422445D01*
X48973402Y-112257701D01*
X49000500Y-112086611D01*
X49000500Y-111913389D01*
X48973402Y-111742299D01*
X48952355Y-111677525D01*
X62249500Y-111677525D01*
X62249500Y-111822475D01*
X62275427Y-111919233D01*
X62287017Y-111962488D01*
X62359488Y-112088011D01*
X62359490Y-112088013D01*
X62359491Y-112088015D01*
X62461985Y-112190509D01*
X62461986Y-112190510D01*
X62461988Y-112190511D01*
X62587511Y-112262982D01*
X62587512Y-112262982D01*
X62587515Y-112262984D01*
X62727525Y-112300500D01*
X62727528Y-112300500D01*
X62872472Y-112300500D01*
X62872475Y-112300500D01*
X63012485Y-112262984D01*
X63138015Y-112190509D01*
X63240509Y-112088015D01*
X63312984Y-111962485D01*
X63350500Y-111822475D01*
X63350500Y-111677525D01*
X64444500Y-111677525D01*
X64444500Y-111822475D01*
X64470427Y-111919233D01*
X64482017Y-111962488D01*
X64554488Y-112088011D01*
X64554490Y-112088013D01*
X64554491Y-112088015D01*
X64656985Y-112190509D01*
X64656986Y-112190510D01*
X64656988Y-112190511D01*
X64782511Y-112262982D01*
X64782512Y-112262982D01*
X64782515Y-112262984D01*
X64922525Y-112300500D01*
X64922528Y-112300500D01*
X65067472Y-112300500D01*
X65067475Y-112300500D01*
X65207485Y-112262984D01*
X65333015Y-112190509D01*
X65435509Y-112088015D01*
X65507984Y-111962485D01*
X65545500Y-111822475D01*
X65545500Y-111677525D01*
X65507984Y-111537515D01*
X65481142Y-111491024D01*
X65435511Y-111411988D01*
X65435506Y-111411982D01*
X65333017Y-111309493D01*
X65333011Y-111309488D01*
X65207488Y-111237017D01*
X65207489Y-111237017D01*
X65196006Y-111233940D01*
X65067475Y-111199500D01*
X64922525Y-111199500D01*
X64793993Y-111233940D01*
X64782511Y-111237017D01*
X64656988Y-111309488D01*
X64656982Y-111309493D01*
X64554493Y-111411982D01*
X64554488Y-111411988D01*
X64482017Y-111537511D01*
X64481214Y-111540509D01*
X64444500Y-111677525D01*
X63350500Y-111677525D01*
X63312984Y-111537515D01*
X63286142Y-111491024D01*
X63240511Y-111411988D01*
X63240506Y-111411982D01*
X63138017Y-111309493D01*
X63138011Y-111309488D01*
X63012488Y-111237017D01*
X63012489Y-111237017D01*
X63001006Y-111233940D01*
X62872475Y-111199500D01*
X62727525Y-111199500D01*
X62598993Y-111233940D01*
X62587511Y-111237017D01*
X62461988Y-111309488D01*
X62461982Y-111309493D01*
X62359493Y-111411982D01*
X62359488Y-111411988D01*
X62287017Y-111537511D01*
X62286214Y-111540509D01*
X62249500Y-111677525D01*
X48952355Y-111677525D01*
X48919873Y-111577555D01*
X48841232Y-111423212D01*
X48739414Y-111283072D01*
X48616928Y-111160586D01*
X48476788Y-111058768D01*
X48415470Y-111027525D01*
X52299500Y-111027525D01*
X52299500Y-111172475D01*
X52329135Y-111283072D01*
X52337017Y-111312488D01*
X52409488Y-111438011D01*
X52409490Y-111438013D01*
X52409491Y-111438015D01*
X52511985Y-111540509D01*
X52511986Y-111540510D01*
X52511988Y-111540511D01*
X52637511Y-111612982D01*
X52637512Y-111612982D01*
X52637515Y-111612984D01*
X52777525Y-111650500D01*
X52777528Y-111650500D01*
X52922472Y-111650500D01*
X52922475Y-111650500D01*
X53062485Y-111612984D01*
X53168413Y-111551825D01*
X53236309Y-111535353D01*
X53302337Y-111558205D01*
X53305900Y-111560839D01*
X53311982Y-111565506D01*
X53311985Y-111565509D01*
X53332844Y-111577552D01*
X53437511Y-111637982D01*
X53437512Y-111637982D01*
X53437515Y-111637984D01*
X53577525Y-111675500D01*
X53577528Y-111675500D01*
X53722472Y-111675500D01*
X53722475Y-111675500D01*
X53862485Y-111637984D01*
X53988015Y-111565509D01*
X54090509Y-111463015D01*
X54162984Y-111337485D01*
X54200500Y-111197475D01*
X54200500Y-111052525D01*
X54162984Y-110912515D01*
X54148550Y-110887515D01*
X54090511Y-110786988D01*
X54090506Y-110786982D01*
X53988017Y-110684493D01*
X53988011Y-110684488D01*
X53862488Y-110612017D01*
X53862489Y-110612017D01*
X53851006Y-110608940D01*
X53722475Y-110574500D01*
X53577525Y-110574500D01*
X53448993Y-110608940D01*
X53437511Y-110612017D01*
X53331588Y-110673173D01*
X53263688Y-110689646D01*
X53197661Y-110666794D01*
X53194100Y-110664161D01*
X53188011Y-110659488D01*
X53062488Y-110587017D01*
X53062489Y-110587017D01*
X53051006Y-110583940D01*
X52922475Y-110549500D01*
X52777525Y-110549500D01*
X52648993Y-110583940D01*
X52637511Y-110587017D01*
X52511988Y-110659488D01*
X52511982Y-110659493D01*
X52409493Y-110761982D01*
X52409488Y-110761988D01*
X52337017Y-110887511D01*
X52337016Y-110887515D01*
X52299500Y-111027525D01*
X48415470Y-111027525D01*
X48322445Y-110980127D01*
X48157701Y-110926598D01*
X48157699Y-110926597D01*
X48157698Y-110926597D01*
X48026271Y-110905781D01*
X47986611Y-110899500D01*
X47813389Y-110899500D01*
X47773728Y-110905781D01*
X47642302Y-110926597D01*
X47477552Y-110980128D01*
X47323211Y-111058768D01*
X47243256Y-111116859D01*
X47183072Y-111160586D01*
X47183070Y-111160588D01*
X47183069Y-111160588D01*
X47060588Y-111283069D01*
X47060588Y-111283070D01*
X47060586Y-111283072D01*
X47041390Y-111309493D01*
X46958768Y-111423211D01*
X46880128Y-111577552D01*
X46826597Y-111742302D01*
X46813900Y-111822472D01*
X46799500Y-111913389D01*
X46460500Y-111913389D01*
X46433402Y-111742299D01*
X46379873Y-111577555D01*
X46301232Y-111423212D01*
X46199414Y-111283072D01*
X46076928Y-111160586D01*
X45936788Y-111058768D01*
X45782445Y-110980127D01*
X45617701Y-110926598D01*
X45617699Y-110926597D01*
X45617698Y-110926597D01*
X45486271Y-110905781D01*
X45446611Y-110899500D01*
X45273389Y-110899500D01*
X45233728Y-110905781D01*
X45102302Y-110926597D01*
X44937552Y-110980128D01*
X44783211Y-111058768D01*
X44703256Y-111116859D01*
X44643072Y-111160586D01*
X44643070Y-111160588D01*
X44643069Y-111160588D01*
X44520588Y-111283069D01*
X44520588Y-111283070D01*
X44520586Y-111283072D01*
X44501390Y-111309493D01*
X44418768Y-111423211D01*
X44340128Y-111577552D01*
X44286597Y-111742302D01*
X44273900Y-111822472D01*
X44259500Y-111913389D01*
X43920500Y-111913389D01*
X43893402Y-111742299D01*
X43839873Y-111577555D01*
X43761232Y-111423212D01*
X43659414Y-111283072D01*
X43536928Y-111160586D01*
X43396788Y-111058768D01*
X43242445Y-110980127D01*
X43077701Y-110926598D01*
X43077699Y-110926597D01*
X43077698Y-110926597D01*
X42946271Y-110905781D01*
X42906611Y-110899500D01*
X42733389Y-110899500D01*
X42693728Y-110905781D01*
X42562302Y-110926597D01*
X42397552Y-110980128D01*
X42243211Y-111058768D01*
X42163256Y-111116859D01*
X42103072Y-111160586D01*
X42103070Y-111160588D01*
X42103069Y-111160588D01*
X41980588Y-111283069D01*
X41980588Y-111283070D01*
X41980586Y-111283072D01*
X41961390Y-111309493D01*
X41878768Y-111423211D01*
X41800128Y-111577552D01*
X41746597Y-111742302D01*
X41733900Y-111822472D01*
X41719500Y-111913389D01*
X41380500Y-111913389D01*
X41380500Y-111125326D01*
X41380500Y-111125323D01*
X41380499Y-111125321D01*
X41365967Y-111052264D01*
X41365966Y-111052260D01*
X41310601Y-110969399D01*
X41227740Y-110914034D01*
X41227739Y-110914033D01*
X41227735Y-110914032D01*
X41154677Y-110899500D01*
X41154674Y-110899500D01*
X39405326Y-110899500D01*
X39405323Y-110899500D01*
X39332264Y-110914032D01*
X39332260Y-110914033D01*
X39249399Y-110969399D01*
X39194033Y-111052260D01*
X39194032Y-111052264D01*
X39179500Y-111125321D01*
X32173042Y-111125321D01*
X32242837Y-111071765D01*
X32251664Y-111065584D01*
X32595703Y-110846407D01*
X32605024Y-110841025D01*
X32966853Y-110652669D01*
X32976627Y-110648111D01*
X33353482Y-110492012D01*
X33363629Y-110488319D01*
X33752639Y-110365665D01*
X33763068Y-110362870D01*
X34161308Y-110274582D01*
X34171938Y-110272709D01*
X34576347Y-110219468D01*
X34587080Y-110218528D01*
X34997297Y-110200617D01*
X35002706Y-110200500D01*
X35039882Y-110200500D01*
X74960118Y-110200500D01*
X74997294Y-110200500D01*
X75002702Y-110200617D01*
G37*
%TD.AperFunction*%
%TD*%
M02*
